<?xml version="1.0" standalone="no"?><!DOCTYPE svg PUBLIC "-//W3C//DTD SVG 1.1//EN" "http://www.w3.org/Graphics/SVG/1.1/DTD/svg11.dtd">
<svg t="1665403533076" class="icon" viewBox="0 0 1024 1024" version="1.1" xmlns="http://www.w3.org/2000/svg" p-id="5237" xmlns:xlink="http://www.w3.org/1999/xlink" width="200" height="200">

<path d="M512 0c282.781538 0 512 229.218462 512 512s-229.218462 512-512 512S0 794.781538 0 512 229.218462 0 512 0z m0 78.769231C272.738462 78.769231 78.769231 272.738462 78.769231 512s193.969231 433.230769 433.230769 433.230769 433.230769-193.969231 433.230769-433.230769S751.261538 78.769231 512 78.769231z" fill="#FF9102" p-id="5239">
</path>
<path d="M512 669.538462a39.384615 39.384615 0 1 1 0 78.76923 39.384615 39.384615 0 0 1 0-78.76923z" fill="#FF9100" p-id="5240">
</path>
<path d="M372.578462 236.307692a177.230769 177.230769 0 1 1 0 354.461539 177.230769 177.230769 0 0 1 0-354.461539z m0 70.892308a106.338462 106.338462 0 1 0 0 212.676923 106.338462 106.338462 0 0 0 0-212.676923z" fill="#FF9100" p-id="5241">
</path>
<path d="M440.910769 512.157538h80.462769L354.973538 748.307692H275.771077z" fill="#FF9100" p-id="5242">
</path>
<path d="M708.923077 393.846154a118.153846 118.153846 0 1 1 0 236.307692 118.153846 118.153846 0 0 1 0-236.307692z m0 52.499692a65.654154 65.654154 0 1 0 0 131.308308 65.654154 65.654154 0 0 0 0-131.308308z" fill="#FF9100" p-id="5243">
</path>
<path d="M723.534769 590.769231h72.585846l-115.160615 157.538461h-72.310154z" fill="#FF9100" p-id="5244">
</path>
</svg>