<?xml version="1.0" standalone="no"?><!DOCTYPE svg PUBLIC "-//W3C//DTD SVG 1.1//EN" "http://www.w3.org/Graphics/SVG/1.1/DTD/svg11.dtd"><svg t="1680346521719" class="icon" viewBox="0 0 1024 1024" version="1.1" xmlns="http://www.w3.org/2000/svg" p-id="32790" width="256" height="256" xmlns:xlink="http://www.w3.org/1999/xlink"><path d="M319.976 280.768V309.72a28.9 28.9 0 0 0 24.09-12.894l-24.09-16.06z m54.28-81.418l-24.09-16.06 24.088 16.06z m277.49 0l24.088-16.06-24.088 16.06z m54.278 81.418l-24.09 16.06a28.9 28.9 0 0 0 24.09 12.892V280.768zM599.86 570.3c0 47.986-38.874 86.86-86.86 86.86v57.908c79.95 0 144.768-64.818 144.768-144.768H599.86z m-86.86 86.86c-47.986 0-86.86-38.874-86.86-86.86h-57.908c0 79.95 64.818 144.768 144.768 144.768V657.16z m-86.86-86.86c0-47.986 38.874-86.86 86.86-86.86v-57.908c-79.95 0-144.768 64.818-144.768 144.768h57.908z m86.86-86.86c47.986 0 86.86 38.874 86.86 86.86h57.908c0-79.95-64.818-144.768-144.768-144.768v57.908z m-168.934-186.616l54.28-81.416-48.18-32.12-54.28 81.418 48.18 32.12z m94.428-102.92h149.012V136h-149.012v57.906z m189.16 21.504l54.28 81.416 48.18-32.118-54.28-81.418-48.18 32.12z m-40.148-21.504a48.246 48.246 0 0 1 40.15 21.504l48.18-32.12A106.196 106.196 0 0 0 587.504 136v57.906z m-189.16 21.504a48.246 48.246 0 0 1 40.148-21.504V136a106.196 106.196 0 0 0-88.328 47.29l48.18 32.12z m471.748 219.776v270.232H928V435.186h-57.906z m-125.466 395.698H281.372v57.906h463.256v-57.906z m-588.72-125.466V435.186H98v270.232h57.906z m125.464 125.466c-69.296 0-125.466-56.17-125.466-125.466H98c0 101.26 82.112 183.372 183.372 183.372v-57.906z m588.72-125.466c0 69.296-56.168 125.466-125.464 125.466v57.906c101.26 0 183.372-82.112 183.372-183.372h-57.906zM744.63 309.72c69.296 0 125.466 56.17 125.466 125.466H928c0-101.26-82.112-183.372-183.372-183.372V309.72zM281.372 251.814C180.112 251.814 98 333.926 98 435.186h57.906c0-69.296 56.17-125.466 125.466-125.466V251.814z m0 57.906h38.604V251.814H281.372V309.72z m463.256-57.906h-38.604V309.72h38.604V251.814z" fill="#1E2124" p-id="32791"></path><path d="M513 280.768m-38.604 0a38.604 38.604 0 1 0 77.208 0 38.604 38.604 0 1 0-77.208 0Z" fill="#1E2124" p-id="32792"></path></svg>