<?xml version="1.0" standalone="no"?><!DOCTYPE svg PUBLIC "-//W3C//DTD SVG 1.1//EN" "http://www.w3.org/Graphics/SVG/1.1/DTD/svg11.dtd"><svg t="1665316164718" class="icon" viewBox="0 0 1024 1024" version="1.1" xmlns="http://www.w3.org/2000/svg" p-id="14090" xmlns:xlink="http://www.w3.org/1999/xlink" width="200" height="200"><path d="M78.757647 530.271373a455.278431 455.278431 0 1 0 910.556863 2.81098 455.278431 455.278431 0 0 0-910.556863-2.81098z" fill="#FFE7D7" p-id="14091"></path><path d="M747.018039 487.604706c18.672941-25.549804 72.934902-43.971765 45.176471-64.100392l-324.517647-183.717647c-27.055686-19.676863-64.702745-15.058824-83.375687 10.039215L326.27451 329.738039a24.395294 24.395294 0 0 0 0.501961 26.654118s37.044706 38.751373 7.780392 79.309804" fill="#69D5FF" p-id="14092"></path><path d="M806.500392 404.48l-1.003921-1.003922-324.718432-183.717647C443.231373 193.054118 391.529412 200.432941 365.276863 235.921569L307.300392 315.582745a47.636078 47.636078 0 0 0 0.351373 54.211765l1.003921 1.505882 1.505883 1.505883a56.821961 56.821961 0 0 1 10.49098 17.618823 32.627451 32.627451 0 0 1-4.618039 31.623529l38.048627 28.210197a60.235294 60.235294 0 0 0 6.575687-10.541177l-25.6-3.011765c29.716078-40.558431-7.780392-79.309804-7.780393-79.309804a23.441569 23.441569 0 0 1-0.401568-26.603921L384.803137 250.980392c18.672941-25.549804 56.32-30.117647 83.375687-10.039216L793.098039 424.508235c27.055686 19.676863-26.704314 38.550588-45.17647 64.100392l19.024313 14.105098a131.814902 131.814902 0 0 1 22.638432-19.526274c17.116863-13.000784 35.137255-26.001569 35.137255-47.083922a41.261176 41.261176 0 0 0-17.970196-31.673725z" fill="#5E482A" p-id="14093"></path><path d="M768 447.548235s58.327843-39.454118 25.750588-47.585882l-459.294117-107.369412c-32.627451-8.131765-65.254902 10.340392-72.934902 40.96l-24.345098 96.276079a23.893333 23.893333 0 0 0 10.039215 24.144313s48.64 22.236863 36.442353 70.876863" fill="#FFFFFF" p-id="14094"></path><path d="M829.088627 405.534118c-1.003922-6.023529-5.973333-21.082353-27.00549-26.704314L342.086275 271.560784a83.07451 83.07451 0 0 0-101.596863 58.37804l-24.395294 96.326274a47.736471 47.736471 0 0 0 20.429804 50.196078l1.505882 1.003922 1.505882 1.003922a59.683137 59.683137 0 0 1 15.058824 11.595294 32.878431 32.878431 0 0 1 7.93098 32.12549l46.130196 11.695686a71.077647 71.077647 0 0 0 2.058039-10.039215l-25.098039 3.915294C297.763137 479.221961 249.123137 456.784314 249.123137 456.784314a23.391373 23.391373 0 0 1-10.039215-24.144314L263.579608 336.313725C271.058824 306.196078 304.38902 287.472941 336.313725 295.604706l459.946667 107.319216c32.627451 8.131765-25.750588 47.585882-25.750588 47.585882l13.502745 19.626667a256 256 0 0 0 21.132549-16.51451c24.847059-23.491765 25.901176-38.550588 23.943529-48.087843z" fill="#5E482A" p-id="14095"></path><path d="M839.278431 507.482353V433.192157a61.088627 61.088627 0 0 0-61.540392-60.235294L256 371.149804a61.088627 61.088627 0 0 0-61.941961 60.235294v73.788235a15.510588 15.510588 0 0 0 11.494902 15.058824c38.600784 11.143529 58.127059 32.828235 58.026667 64.953725s-19.727059 53.659608-58.428235 64.552157a16.112941 16.112941 0 0 0-11.595295 15.058824v71.780392a61.088627 61.088627 0 0 0 61.540393 60.235294l522.039215 1.606275a61.088627 61.088627 0 0 0 61.941961-60.235295v-72.282353a15.661176 15.661176 0 0 0-10.992941-15.058823c-39.102745-12.147451-58.127059-33.832157-58.026667-64.451765s19.727059-52.153725 58.428236-64.050196a15.661176 15.661176 0 0 0 11.093333-15.058823z" fill="#FD7968" p-id="14096"></path><path d="M828.235294 522.49098a15.661176 15.661176 0 0 0 11.093333-15.058823v-74.290196a61.088627 61.088627 0 0 0-61.540392-60.235294L256 371.149804a61.088627 61.088627 0 0 0-61.941961 60.235294v73.788235a15.510588 15.510588 0 0 0 11.494902 15.058824c38.600784 11.143529 58.127059 32.828235 58.026667 64.953725s-19.727059 53.659608-58.428235 64.552157a16.112941 16.112941 0 0 0-11.595295 15.058824v71.780392a61.088627 61.088627 0 0 0 61.540393 60.235294l522.039215 1.606275a61.088627 61.088627 0 0 0 61.941961-60.235295v-72.282353a15.661176 15.661176 0 0 0-10.992941-15.058823c-39.102745-12.147451-58.127059-33.832157-58.026667-64.451765s19.727059-52.153725 58.428236-64.050196z m-82.020392 64.501961c0 28.109804 11.846275 65.254902 69.521569 85.333334v66.258823a37.496471 37.496471 0 0 1-38.249412 36.542745l-522.541177-1.606274a37.195294 37.195294 0 0 1-38.048627-36.74353v-65.756863a108.624314 108.624314 0 0 0 48.790588-29.465098 81.66902 81.66902 0 0 0 20.730981-56.169411A82.572549 82.572549 0 0 0 266.039216 529.317647a111.435294 111.435294 0 0 0-48.589804-29.766274v-67.764706A37.496471 37.496471 0 0 1 256 395.243922l522.039216 1.606274a37.496471 37.496471 0 0 1 38.048627 36.743529v68.266667c-57.625098 19.425882-69.822745 56.520784-69.872941 85.132549z" fill="#5E482A" p-id="14097"></path><path d="M513.455686 32.12549A480.12549 480.12549 0 1 1 32.12549 512a480.175686 480.175686 0 0 1 481.330196-479.87451m0-22.086274A501.960784 501.960784 0 0 0 10.039216 512a499.601569 499.601569 0 0 0 500.404706 501.960784 501.960784 501.960784 0 0 0 3.06196-1003.921568z" fill="#5E482A" p-id="14098"></path><path d="M527.058824 616.357647h49.694117a8.83451 8.83451 0 0 1 10.039216 10.039216 8.683922 8.683922 0 0 1-10.039216 9.687843H527.058824v42.11451a18.020392 18.020392 0 0 1-2.007844 10.039215c-1.305098 1.706667-4.316863 2.56-8.934902 2.56a11.896471 11.896471 0 0 1-8.633725-2.610196 14.607059 14.607059 0 0 1-2.56-10.039215v-42.11451h-49.091765a8.683922 8.683922 0 0 1-10.039215-9.738039c0-6.676078 3.162353-10.039216 9.436862-10.039216h49.694118v-29.364706h-49.091765a8.683922 8.683922 0 0 1-10.039215-9.738039q0-10.039216 9.436862-10.039216h36.341961l-21.534118-35.538823-21.584313-35.538824q-5.421176-10.039216 2.158431-15.058823a10.039216 10.039216 0 0 1 7.278431-2.108236c2.208627 0.451765 4.417255 2.459608 6.676079 6.123922l49.091765 82.221176h5.772549l24.043921-40.558431 24.043922-40.558431c2.861176-4.618039 5.37098-6.876863 7.579608-6.776471A15.711373 15.711373 0 0 1 582.27451 481.882353a8.533333 8.533333 0 0 1 4.517647 6.073725 15.661176 15.661176 0 0 1-3.061961 8.784314l-42.666667 70.27451h35.488628a8.83451 8.83451 0 0 1 10.039216 10.039216 8.683922 8.683922 0 0 1-10.039216 9.687843h-49.694118z" fill="#FFFFFF" p-id="14099"></path><path d="M456.784314 478.72h1.204706c2.208627 0.451765 4.417255 2.459608 6.676078 6.123922l48.991373 82.371764h5.772549l24.043921-40.558431 24.043922-40.558431c2.760784-4.517647 5.019608-6.776471 7.429019-6.776471A15.711373 15.711373 0 0 1 582.27451 481.882353a8.533333 8.533333 0 0 1 4.517647 6.073725 15.661176 15.661176 0 0 1-3.061961 8.784314l-42.666667 70.27451h35.488628a8.83451 8.83451 0 0 1 10.039216 10.039216 8.683922 8.683922 0 0 1-10.039216 9.687843h-49.694118v29.364706h49.694118a8.83451 8.83451 0 0 1 10.039216 10.039215 8.683922 8.683922 0 0 1-10.039216 9.687843h-49.694118v42.11451a18.020392 18.020392 0 0 1-2.007843 10.039216c-1.305098 1.706667-4.266667 2.56-8.83451 2.56a11.896471 11.896471 0 0 1-8.633725-2.610196 14.607059 14.607059 0 0 1-2.56-10.039216v-42.11451h-49.091765a8.683922 8.683922 0 0 1-10.039216-9.738039c0-6.625882 3.112157-10.039216 9.386667-10.039215h49.694118v-29.364706h-49.091765a8.683922 8.683922 0 0 1-10.039216-9.73804q0-10.039216 9.386667-10.039215h36.341961l-21.534118-35.538824-21.584314-35.538823q-5.421176-10.039216 2.158432-15.058824a10.892549 10.892549 0 0 1 6.374902-2.007843m0-24.596078a35.137255 35.137255 0 0 0-20.078432 6.52549c-12.850196 8.683922-20.981961 26.704314-10.039215 47.134117l0.602353 1.054118 7.479215 12.298039 13.301961 21.88549a32.677647 32.677647 0 0 0-27.00549 33.882353 33.731765 33.731765 0 0 0 9.286274 24.345098 35.137255 35.137255 0 0 0-9.436862 24.746667 33.631373 33.631373 0 0 0 10.039215 25.098039 34.283922 34.283922 0 0 0 24.596079 9.436863h24.495686v17.518431a38.14902 38.14902 0 0 0 9.687843 27.557648 35.137255 35.137255 0 0 0 26.001569 10.039215 33.781961 33.781961 0 0 0 28.511372-12.147451 40.608627 40.608627 0 0 0 7.077647-25.098039v-17.518431h25.09804a32.978824 32.978824 0 0 0 34.68549-34.18353 34.183529 34.183529 0 0 0-9.336471-24.646274 34.133333 34.133333 0 0 0 9.487059-24.44549 32.778039 32.778039 0 0 0-26.905098-33.982746l20.580392-33.982745a38.349804 38.349804 0 0 0 6.475294-23.742745 32.476863 32.476863 0 0 0-15.661176-24.495686l-0.501961-0.301177a40.156863 40.156863 0 0 0-18.873725-6.174117h-1.405491c-11.294118 0-20.881569 6.224314-28.41098 18.522353v0.301176l-24.094118 40.608628-5.822745 10.039215-30.97098-52.053333a34.735686 34.735686 0 0 0-23.090196-17.618823h-0.301177a31.623529 31.623529 0 0 0-5.571764-0.501961z" fill="#5E482A" p-id="14100"></path></svg>