<?xml version="1.0" standalone="no"?><!DOCTYPE svg PUBLIC "-//W3C//DTD SVG 1.1//EN" "http://www.w3.org/Graphics/SVG/1.1/DTD/svg11.dtd"><svg t="1680346963377" class="icon" viewBox="0 0 1024 1024" version="1.1" xmlns="http://www.w3.org/2000/svg" p-id="37175" width="128" height="128" xmlns:xlink="http://www.w3.org/1999/xlink"><path d="M94.31466667 260.21333333c-11.78666667 0-21.33333333-9.54666667-21.33333334-21.33333333v-76.288c0-49.408 40.20266667-89.61066667 89.61066667-89.61066667h76.39466667c11.78666667 0 21.33333333 9.54666667 21.33333333 21.33333334s-9.54666667 21.33333333-21.33333333 21.33333333h-76.39466667c-25.888 0-46.944 21.056-46.944 46.944v76.288c0 11.78666667-9.55733333 21.33333333-21.33333333 21.33333333zM238.98666667 953.16266667h-76.39466667c-49.408 0-89.61066667-40.20266667-89.61066667-89.61066667v-76.288c0-11.78666667 9.54666667-21.33333333 21.33333334-21.33333333s21.33333333 9.54666667 21.33333333 21.33333333v76.288c0 25.888 21.056 46.944 46.944 46.944h76.39466667c11.78666667 0 21.33333333 9.54666667 21.33333333 21.33333333s-9.54666667 21.33333333-21.33333333 21.33333334z" p-id="37176"></path><path d="M932.256 260.21333333c-11.78666667 0-21.33333333-9.54666667-21.33333333-21.33333333v-76.288c0-25.888-21.056-46.944-46.944-46.944h-76.39466667c-11.78666667 0-21.33333333-9.54666667-21.33333333-21.33333333s9.54666667-21.33333333 21.33333333-21.33333334h76.39466667c49.41866667 0 89.61066667 40.20266667 89.61066666 89.61066667v76.288c0 11.78666667-9.54666667 21.33333333-21.33333333 21.33333333zM863.97866667 953.16266667h-76.39466667c-11.78666667 0-21.33333333-9.54666667-21.33333333-21.33333334s9.54666667-21.33333333 21.33333333-21.33333333h76.39466667c25.888 0 46.944-21.056 46.944-46.944v-76.288c0-11.78666667 9.54666667-21.33333333 21.33333333-21.33333333s21.33333333 9.54666667 21.33333333 21.33333333v76.288c0 49.408-40.192 89.61066667-89.61066666 89.61066667z" p-id="37177"></path><path d="M580.384 578.90133333v-25.74933333c54.34666667-31.02933333 91.968-98.06933333 91.968-175.78666667 0-107.24266667-71.63733333-194.176-160-194.176s-160 86.93333333-160 194.176c0 77.472 37.39733333 144.34133333 91.46666667 175.49866667v27.04c-111.072 24.08533333-193.67466667 102.64533333-193.67466667 188.88533333h524.72533333c0-87.47733333-81.952-167.05066667-194.48533333-189.888z" p-id="37178"></path></svg>