<?xml version="1.0" standalone="no"?><!DOCTYPE svg PUBLIC "-//W3C//DTD SVG 1.1//EN" "http://www.w3.org/Graphics/SVG/1.1/DTD/svg11.dtd"><svg t="1665316317554" class="icon" viewBox="0 0 1024 1024" version="1.1" xmlns="http://www.w3.org/2000/svg" p-id="16691" xmlns:xlink="http://www.w3.org/1999/xlink" width="200" height="200"><path d="M510.6 63.7C263 63.7 62.3 264.5 62.3 512c0 247.6 200.7 448.3 448.3 448.3 247.6 0 448.3-200.7 448.3-448.3 0-247.5-200.7-448.3-448.3-448.3z m0 779.2c-182.5 0-330.9-148.4-330.9-330.9s148.4-330.9 330.9-330.9S841.5 329.6 841.5 512 693 842.9 510.6 842.9z" fill="#f2290f" p-id="16692"></path><path d="M688.9 403.2c-39.8-39.8-104.2-39.8-144 0L510.6 435l-34.3-31.8c-39.8-39.8-104.2-39.8-144 0s-39.8 104.2 0 144l178.1 178.1 0.2-0.2 0.2 0.2 178.1-178.1c39.8-39.7 39.8-104.2 0-144z" fill="#f2290f" p-id="16693"></path></svg>