<?xml version="1.0" standalone="no"?><!DOCTYPE svg PUBLIC "-//W3C//DTD SVG 1.1//EN" "http://www.w3.org/Graphics/SVG/1.1/DTD/svg11.dtd"><svg t="1674915687304" class="icon" viewBox="0 0 1024 1024" version="1.1" xmlns="http://www.w3.org/2000/svg" p-id="6850" xmlns:xlink="http://www.w3.org/1999/xlink" width="150" height="150"><path d="M955.967 837.616c-2.938-132.315-82.778-245.621-196.697-297.075 52.629-40.884 86.508-104.715 86.508-176.473 0-123.43-100.141-223.483-223.68-223.483-40.547 0-78.529 10.834-111.312 29.679-32.784-18.843-70.761-29.679-111.301-29.679-123.54 0-223.7 100.053-223.7 223.483 0 71.602 33.74 135.304 86.175 176.197C148.706 591.141 68.97 703.086 64.722 834.154c-0.683 2.811-0.74 12.19-0.74 12.19 0 20.482 16.605 37.069 37.105 37.069 20.481 0 37.105-16.587 37.105-37.069l0.686-1.195c0.315-135.981 104.969-247.401 238.221-258.734l0.002 0c7.364 0.733 14.829 1.117 22.385 1.117 7.555 0 15.02-0.385 22.384-1.117 0 0 0 0 0.002 0 131.007 11.144 234.306 119.066 238.033 251.943-0.185 1.492 0.023 7.986 0.023 7.986 0 20.482 16.607 37.069 37.105 37.069 20.482 0 37.087-16.587 37.087-37.069 0 0-0.507-7.091-0.766-8.868-2.281-100.768-49.164-190.473-121.749-250.246 3.482 0.16 26.198-0.149 32.877-0.815 13.701-1.36 27.027-3.978 39.887-7.696l0.019 0.021c87.612 38.018 195.884 121.269 197.953 262.128-0.045 0.68 0.101 4.616 0.101 4.616l0.081 0.86c0 20.482 16.623 37.069 37.105 37.069 20.5 0 37.106-16.587 37.106-37.069C956.732 846.345 956.215 839.349 955.967 837.616zM398.941 517.326c-84.598 0-153.177-68.578-153.177-153.176 0-84.594 68.578-153.172 153.177-153.172 84.594 0 153.172 68.578 153.172 153.172C552.112 448.748 483.534 517.326 398.941 517.326zM684.448 498.236c2.195-1.026 4.352-2.112 6.488-3.238C688.8 496.123 686.643 497.209 684.448 498.236zM691.392 494.749c-2.43 0.998-4.765 2.172-6.995 3.512-14.494 6.772-30.254 11.29-46.839 13.075l-14.678 0.845c-0.48 0.006-0.955 0.037-1.434 0.037-16.758 0-32.861-2.78-47.889-7.888 31.005-38.35 49.609-87.124 49.609-140.262 0-53.498-18.835-102.586-50.211-141.058 15.2-5.239 31.506-8.106 48.49-8.106 82.179 0 148.802 66.551 148.802 148.657C770.247 420.397 738.303 469.742 691.392 494.749z" fill="#fb3319" p-id="6851"></path></svg>