<?xml version="1.0" standalone="no"?><!DOCTYPE svg PUBLIC "-//W3C//DTD SVG 1.1//EN" "http://www.w3.org/Graphics/SVG/1.1/DTD/svg11.dtd"><svg t="1665316232961" class="icon" viewBox="0 0 1024 1024" version="1.1" xmlns="http://www.w3.org/2000/svg" p-id="15839" xmlns:xlink="http://www.w3.org/1999/xlink" width="200" height="200"><path d="M493.795 772.323v-59.165c-40.050-4.551-82.83-21.845-112.867-46.421l-3.641-2.731 29.127-37.319 3.641 2.731c33.678 26.397 67.357 39.139 101.945 39.139 48.242 0 74.638-20.935 74.638-60.075 0-46.421-42.781-65.536-87.381-85.561-50.973-22.755-102.855-46.421-102.855-110.137 0-51.883 39.139-91.933 97.394-101.035v-60.075h46.421v59.165c45.511 5.461 73.728 26.397 92.843 45.511l3.641 3.641-32.768 32.768-2.731-2.731c-24.576-21.845-44.601-32.768-81.010-32.768-39.139 0-65.536 21.845-65.536 55.523 0 38.229 37.319 54.613 80.099 72.818 51.883 22.755 111.047 47.331 111.047 121.97 0 57.344-40.050 97.394-104.675 106.496v60.075h-47.331z" fill="#f2290f" p-id="15840"></path><path d="M512 986.226c-261.234 0-474.226-212.992-474.226-474.226s212.992-474.226 474.226-474.226c261.234 0 474.226 212.992 474.226 474.226 0 261.234-212.992 474.226-474.226 474.226zM512 86.016c-234.837 0-425.984 191.147-425.984 425.984s191.147 425.984 425.984 425.984c234.837 0 425.984-191.147 425.984-425.984 0-234.837-191.147-425.984-425.984-425.984z" fill="#f2290f" p-id="15841"></path><path d="M512 900.665c-13.653 0-24.576-10.923-24.576-24.576s10.923-24.576 24.576-24.576c186.595 0 338.603-152.007 338.603-338.603 0-51.883-11.833-101.945-34.589-148.366-2.731-6.371-3.641-12.743-0.91-19.115 1.821-6.371 6.371-10.923 12.743-14.563 3.641-1.821 7.282-2.731 10.923-2.731 10.013 0 18.205 5.461 21.845 13.653 26.397 53.703 39.139 110.137 39.139 170.211 0.91 213.902-173.853 388.665-387.755 388.665zM765.952 276.253c-6.371 0-12.743-2.731-17.294-7.282-63.715-61.895-147.456-96.483-236.658-96.483-13.653 0-24.576-10.923-24.576-24.576s10.923-24.576 24.576-24.576c101.945 0 198.429 39.139 271.246 110.137 4.551 4.551 7.282 10.923 7.282 17.294s-2.731 12.743-7.282 17.294c-4.551 5.461-10.923 8.192-17.294 8.192zM370.915 871.538c-3.641 0-6.371-0.91-10.013-1.821-143.815-60.985-237.568-201.159-237.568-357.717 0-151.097 89.202-290.361 226.645-353.166 3.641-1.821 6.371-1.821 10.013-1.821 10.013 0 18.205 5.461 22.755 14.563 5.461 12.743 0 27.307-11.833 32.768-120.149 54.613-197.518 175.673-197.518 307.655 0 136.533 81.010 259.413 207.531 312.206 6.371 2.731 10.923 7.282 13.653 13.653 2.731 6.371 2.731 12.743 0 19.115-5.461 9.102-13.653 14.563-23.666 14.563z" fill="#f2290f" p-id="15842"></path></svg>