<?xml version="1.0" standalone="no"?><!DOCTYPE svg PUBLIC "-//W3C//DTD SVG 1.1//EN" "http://www.w3.org/Graphics/SVG/1.1/DTD/svg11.dtd"><svg t="1665316386201" class="icon" viewBox="0 0 1024 1024" version="1.1" xmlns="http://www.w3.org/2000/svg" p-id="19351" xmlns:xlink="http://www.w3.org/1999/xlink" width="200" height="200"><path d="M649.78554 161.505697C707.566573 88.168232 694.232489 8.163725 689.787794 1.496683c-6.667042-6.667042-93.338592 6.667042-153.341972 86.671549-53.336338 73.337465-53.336338 153.341972-46.669296 160.009014C496.443568 254.844289 583.115118 248.177247 649.78554 161.505697L649.78554 161.505697zM649.78554 161.505697" p-id="19352"></path><path d="M794.238123 534.860064c-6.667042-106.672676 93.338592-173.343099 113.339719-186.677183l0-6.667042c0 0-86.671549-106.672676-213.345353-100.005634-80.004507 6.667042-120.006761 46.669296-173.343099 46.669296-66.670423 0-126.673803-46.669296-200.011268-46.669296-60.00338 0-233.346479 53.336338-246.680564 280.015775C63.085821 748.205417 223.094835 959.328422 283.098216 999.330676c60.00338 40.002254 100.005634 26.668169 166.676057-6.667042 33.335211-20.001127 140.007888-26.668169 200.011268 13.334085 73.337465 26.668169 180.010141 6.667042 300.016902-260.014648C934.24601 748.205417 800.905165 714.870205 794.238123 534.860064L794.238123 534.860064zM794.238123 534.860064" p-id="19353"></path></svg>