<?xml version="1.0" standalone="no"?><!DOCTYPE svg PUBLIC "-//W3C//DTD SVG 1.1//EN" "http://www.w3.org/Graphics/SVG/1.1/DTD/svg11.dtd"><svg t="1665316990301" class="icon" viewBox="0 0 1024 1024" version="1.1" xmlns="http://www.w3.org/2000/svg" p-id="25396" xmlns:xlink="http://www.w3.org/1999/xlink" width="200" height="200"><path d="M754.346667 546.133333v-17.066666c1.706667-75.093333-20.48-139.946667-64.853334-184.32-20.48-22.186667-46.08-37.546667-76.8-49.493334-5.12-40.96-49.493333-73.386667-102.4-73.386666-54.613333 0-98.986667 32.426667-102.4 73.386666-29.013333 11.946667-54.613333 27.306667-76.8 49.493334-44.373333 44.373333-66.56 109.226667-64.853333 184.32v20.48c-11.946667 11.946667-20.48 29.013333-13.653333 52.906666 5.12 18.773333 18.773333 32.426667 34.133333 37.546667 8.533333 5.12 18.773333 8.533333 29.013333 8.533333 20.48 92.16 97.28 153.6 196.266667 153.6s175.786667-63.146667 196.266667-153.6h1.706666c13.653333 0 25.6-5.12 34.133334-11.946666 11.946667-6.826667 22.186667-18.773333 25.6-34.133334 8.533333-27.306667-1.706667-46.08-15.36-56.32z m-331.093334-110.933333c1.706667 3.413333 39.253333 64.853333 110.933334 92.16 20.48 6.826667 39.253333 11.946667 59.733333 15.36 39.253333 8.533333 76.8 15.36 100.693333 49.493333l1.706667 1.706667v1.706667c0 11.946667-1.706667 23.893333-3.413333 35.84-32.426667 51.2-87.04 85.333333-153.6 93.866666-5.12-6.826667-15.36-10.24-27.306667-10.24-17.066667 0-30.72 8.533333-30.72 20.48s13.653333 20.48 30.72 20.48c15.36 0 27.306667-6.826667 29.013333-17.066666 22.186667-1.706667 42.666667-6.826667 61.44-15.36 27.306667-10.24 51.2-27.306667 71.68-47.786667 3.413333-3.413333 6.826667-6.826667 8.533334-10.24-23.893333 73.386667-88.746667 121.173333-172.373334 121.173333-107.52 0-184.32-76.8-184.32-187.733333v-10.24c0-5.12 0-17.066667 1.706667-29.013333 59.733333-20.48 83.626667-80.213333 83.626667-83.626667l11.946666-40.96z m39.253334 168.96c0 18.773333-15.36 34.133333-34.133334 34.133333s-34.133333-15.36-34.133333-34.133333 15.36-34.133333 34.133333-34.133333 34.133333 15.36 34.133334 34.133333z m162.133333 0c0 18.773333-15.36 34.133333-34.133333 34.133333s-34.133333-15.36-34.133334-34.133333 15.36-34.133333 34.133334-34.133333 34.133333 15.36 34.133333 34.133333z m0 0" fill="#f2290f" p-id="25397"></path><path d="M512 0C228.693333 0 0 228.693333 0 512s228.693333 512 512 512 512-228.693333 512-512S795.306667 0 512 0z m0 1006.933333C238.933333 1006.933333 17.066667 785.066667 17.066667 512S238.933333 17.066667 512 17.066667s494.933333 221.866667 494.933333 494.933333-221.866667 494.933333-494.933333 494.933333z" fill="#f2290f" p-id="25398"></path></svg>