<?xml version="1.0" standalone="no"?><!DOCTYPE svg PUBLIC "-//W3C//DTD SVG 1.1//EN" "http://www.w3.org/Graphics/SVG/1.1/DTD/svg11.dtd"><svg t="1665317763658" class="icon" viewBox="0 0 1029 1024" version="1.1" xmlns="http://www.w3.org/2000/svg" p-id="1052" xmlns:xlink="http://www.w3.org/1999/xlink" width="200.9765625" height="200"><path d="M511.9 0C254.7 0 41.1 187.8 0 429.6c66.9 12.9 126.1 23.2 185.2 33.4 128.6 30.9 185.2 15.4 203.2 0 7.7-15.4 23.2-72-41.2-64.3-64.3 7.7-185.2 23.2-177.5-48.9 15.4-79.8 162.1-79.8 275.3-48.9 0 0-23.2-41.2-82.3-48.9-64.3-7.7-97.8-7.7-90-48.9 0-41.2 48.9-64.3 128.6-15.4 56.6 41.2 72 72 113.2 120.9 0 0 195.5 41.2 308.7 120.9 0 0 90 64.3-15.4 128.6-90 30.9-105.5-23.2-283 48.9C355 671.5 177.5 784.7 144 823.2c-10.3 10.3-15.4 20.6-20.6 28.3C218.6 957 357.5 1023.9 509.3 1023.9c285.6 5.1 519.7-226.4 519.7-509.4S794.9 0 511.9 0z" p-id="1053" fill="#f4ea2a"></path></svg>