<?xml version="1.0" standalone="no"?><!DOCTYPE svg PUBLIC "-//W3C//DTD SVG 1.1//EN" "http://www.w3.org/Graphics/SVG/1.1/DTD/svg11.dtd"><svg t="1674915648417" class="icon" viewBox="0 0 1024 1024" version="1.1" xmlns="http://www.w3.org/2000/svg" p-id="5857" xmlns:xlink="http://www.w3.org/1999/xlink" width="150" height="150"><path d="M688.3 199.5c7.5 0 16.5 4.5 21.3 10.6l0.2 0.3 0.2 0.3 174.7 217.6c8.5 11.1 7.2 27.8-3.1 39.2L535 841.2l-0.1 0.1-0.1 0.1c-4.2 4.6-10.7 7.4-19.3 8.2h-0.6c-6.3 0-13.5-2.7-18.7-7l-2.6-2.6L140 465.8c-9.4-10.6-10.5-26.5-2.4-36.3l0.3-0.4 0.3-0.4 175-218v-0.2c5.9-7.3 13.2-11.1 21.7-11.1h353.4m0-67.9H335c-28.6 0-55.7 12.7-74.8 36.6l-175 218C55 422.7 58.1 476.8 90 511.9l354.9 375.6 4.8 4.8c17.5 15.9 41.4 25.5 65.2 25.5h3.2c25.5-1.6 49.3-11.1 66.8-30.2l346.9-374c33.4-36.6 35-90.7 6.4-127.3l-175-218c-17.6-22.5-46.3-36.8-74.9-36.8z" fill="#fb341a" p-id="5858"></path><path d="M320.6 437.8c-7.7 0-15.4 2.8-22.1 8.8-12.7 11.1-12.7 31.8-1.6 44.6l171.9 181.4 3.2 3.2c12.1 11.4 27.5 16.9 43 16.9 17.1 0 34.4-6.8 47.7-20.1l165.5-179.8c11.1-12.7 11.1-33.4-1.6-44.6-6.4-5-13.9-7.4-21.2-7.4-9 0-17.9 3.6-24.9 10.6L523.6 618.7c-2.4 2.5-5.6 3.8-8.8 3.8-3.2 0-6.3-1.2-8.7-3.7L344.6 448.2c-6.8-6.8-15.3-10.4-24-10.4z" fill="#fb341a" p-id="5859"></path></svg>