
<svg width="122px" height="122px" viewBox="0 0 122 122" version="1.1" xmlns="http://www.w3.org/2000/svg" xmlns:xlink="http://www.w3.org/1999/xlink">
    <g id="页面-1" stroke="none" stroke-width="1" fill="none" fill-rule="evenodd" stroke-linejoin="round">
        <g id="7.9”-iPad-mini" transform="translate(-323.000000, -451.000000)" fill="#000000" fill-rule="nonzero" stroke="#000000" stroke-width="5">
            <path d="M440,558.7875 L430.7875,568 L412.05,549.2625 C389.325,566.9125 356.5875,562.7875 338.95,540.05 C321.3125,517.3125 325.425,484.5875 348.15,466.95 C370.875,449.3125 403.6125,453.425 421.25,476.1625 C435.8375,494.9625 435.8375,521.2625 421.25,540.0625 L440,558.7875 Z M410.0625,478.2 C393.525,461.675 366.725,461.675 350.2,478.2 C333.675,494.7375 333.675,521.5375 350.2,538.0625 C366.7375,554.5875 393.5375,554.5875 410.0625,538.0625 C426.5875,521.525 426.575,494.725 410.05,478.2 L410.0625,478.2 Z" id="形状"></path>
        </g>
    </g>
</svg>