<svg xmlns="http://www.w3.org/2000/svg" xmlns:xlink="http://www.w3.org/1999/xlink" width="80" height="80" viewBox="0 0 80 80">
  <defs>
    <linearGradient id="linear-gradient" x1="0.5" x2="0.5" y2="1" gradientUnits="objectBoundingBox">
      <stop offset="0" stop-color="#ff95a7"/>
      <stop offset="1" stop-color="#ff4060"/>
    </linearGradient>
  </defs>
  <g id="组_4496" data-name="组 4496" transform="translate(-61 -325)">
    <circle id="椭圆_32" data-name="椭圆 32" cx="40" cy="40" r="40" transform="translate(61 325)" opacity="0.2" fill="url(#linear-gradient)"/>
    <path id="交叉_1" data-name="交叉 1" d="M25.9,61.709a7.025,7.025,0,0,1-7.182-6.84V38.309l.027-.625a6.723,6.723,0,0,1,2.3-4.416A7.353,7.353,0,0,1,25.9,31.46l5.04,0V25.547a2.477,2.477,0,0,1,2.475-2.474l0-.005a2.478,2.478,0,0,1,2.475,2.475V31.46h5.9a7.027,7.027,0,0,1,7.177,6.849v16.56a7.023,7.023,0,0,1-7.177,6.84Zm9.985-5.5,5.9.009a1.556,1.556,0,0,0,1.678-1.35v-6.2H35.885ZM24.216,54.865l.036.252a1.634,1.634,0,0,0,1.642,1.093l5.04,0V48.664H24.216ZM35.885,43.714h7.582v-5.4a1.555,1.555,0,0,0-1.678-1.346h-5.9ZM25.548,36.991a1.492,1.492,0,0,0-1.332,1.319v5.4h6.719v-6.75l0,0H25.9ZM51.715,56.363V38.273a6.7,6.7,0,0,1,6.57-6.813h4.806a6.7,6.7,0,0,1,6.566,6.813v7.965a2.478,2.478,0,0,1-2.475,2.475H62.731a2.475,2.475,0,0,1,0-4.95h1.975v-5.49a1.776,1.776,0,0,0-1.615-1.863H58.285a1.778,1.778,0,0,0-1.62,1.863v18.09a2.475,2.475,0,1,1-4.95,0Z" transform="translate(58.024 322.932)" fill="url(#linear-gradient)"/>
  </g>
</svg>
