<svg xmlns="http://www.w3.org/2000/svg" xmlns:xlink="http://www.w3.org/1999/xlink" width="80" height="80" viewBox="0 0 80 80">
  <defs>
    <linearGradient id="linear-gradient" x1="0.5" x2="0.5" y2="1" gradientUnits="objectBoundingBox">
      <stop offset="0" stop-color="#ffe2a7"/>
      <stop offset="1" stop-color="#ffba24"/>
    </linearGradient>
  </defs>
  <g id="组_4508" data-name="组 4508" transform="translate(-336 -663)">
    <circle id="椭圆_34" data-name="椭圆 34" cx="40" cy="40" r="40" transform="translate(336 663)" opacity="0.2" fill="url(#linear-gradient)"/>
    <g id="组_4452" data-name="组 4452" transform="translate(290.011 543.981)">
      <path id="路径_8481" data-name="路径 8481" d="M108.026,163.639l-5.608-3.351a16.453,16.453,0,0,1-7.339,5.84,25.866,25.866,0,0,1-4.609-4.522c4.281-.4,8.278-.879,10.992-1.421a26.867,26.867,0,0,1-2.825-4.91,25.328,25.328,0,0,1-2.972.956q2.274-1.253,4.212-2.429a27.256,27.256,0,0,1,3.894,4.626s2.731-2.067,5.091-4.092a37.745,37.745,0,0,0-4.591-3.523,13.473,13.473,0,0,0,3.041-3.075,3.82,3.82,0,0,0,.233-4.4c-1.172-2.024-3.592-2.989-7.1-3.015a45.978,45.978,0,0,0-10.88,1.482v-1.783H65.583v3.618h2.869v9.906c-1.559.146-3.075.319-4.462.517l1.973,4.893a72.358,72.358,0,0,1,14.885-2.688v2.5c-4.893.551-9.588.879-12.654.922l.775,3.4s3.773-.172,8.864-.5a30.076,30.076,0,0,1-13.016,5.237,16.3,16.3,0,0,1,1.525,2.714c2.825,0,12.982-2.929,16.651-6.34L81.3,162.356c.612-.043,1.223-.086,1.852-.138v15.058h6.934v-9.235c2.309,2.636,6.375,6.1,13.188,8.959,1.025-1.128,4.91-4.919,4.91-4.919a32.417,32.417,0,0,1-9.26-3.428C103.658,167.576,108.026,163.639,108.026,163.639ZM73.6,147.539h7.253v1.723H73.612l-.009-1.723Zm7.253-3.9V145.2H73.612v-1.559Zm-7.253,9.51v-1.533h7.253v1.172C78.617,152.863,76.127,152.975,73.6,153.147Zm12.482,2.739c1.025-.052,2.085-.095,3.179-.121v-3.2s-1.215.009-3.179.052v-8.985h2.679l1.2,2.446a17.493,17.493,0,0,1,9.657-2.679,1.654,1.654,0,0,1,.207,0c1.6.112,2.662.422,3.084,1.249a1.736,1.736,0,0,1-.379,1.861,8.485,8.485,0,0,1-2.317,1.878,60.971,60.971,0,0,0-6.926-3.222l-2.507,2.7a26.748,26.748,0,0,1,5.048,2.7c-1.843.8-3.851,1.585-5.806,2.36l2.627,4.023c-2.016.422-4.247.8-6.555,1.137v-2.205Z" transform="translate(0 0)" fill="url(#linear-gradient)"/>
      <path id="路径_8482" data-name="路径 8482" d="M80.5,687.345a16.3,16.3,0,0,1,1.525,2.714c2.825,0,12.982-2.92,16.66-6.34l-3.11-3.4C95.578,680.324,90.978,685.57,80.5,687.345Z" transform="translate(-15.686 -513.239)" fill="url(#linear-gradient)"/>
    </g>
  </g>
</svg>
