<svg xmlns="http://www.w3.org/2000/svg" xmlns:xlink="http://www.w3.org/1999/xlink" width="80" height="80" viewBox="0 0 80 80">
  <defs>
    <linearGradient id="linear-gradient" x1="0.5" x2="0.5" y2="1" gradientUnits="objectBoundingBox">
      <stop offset="0" stop-color="#ccb1fd"/>
      <stop offset="1" stop-color="#8e60ff"/>
    </linearGradient>
  </defs>
  <g id="组_4511" data-name="组 4511" transform="translate(-61 -832)">
    <circle id="椭圆_36" data-name="椭圆 36" cx="40" cy="40" r="40" transform="translate(61 832)" opacity="0.2" fill="url(#linear-gradient)"/>
    <g id="chihewanle" transform="translate(-4.046 628.085)">
      <path id="路径_8564" data-name="路径 8564" d="M121.083,231.745h-2.606a3.019,3.019,0,0,0-3.013-2.829H87.125a3.021,3.021,0,0,0-3.021,3.021v13.212A10.917,10.917,0,0,0,92.98,255.87H85.069a2.023,2.023,0,0,0,0,4.045h33.784a2.023,2.023,0,0,0,0-4.045h-9.235a10.932,10.932,0,0,0,8.174-6.89h.481a8.628,8.628,0,0,0,8.618-8.618v-2.808a5.813,5.813,0,0,0-5.808-5.81ZM92.465,244.831a2.023,2.023,0,1,1-4.045,0v-6.6a2.023,2.023,0,0,1,4.045,0Zm30.38-4.468a4.575,4.575,0,0,1-4.36,4.563V235.79h2.6a1.767,1.767,0,0,1,1.765,1.765v2.808Z" transform="translate(0 -0.001)" fill="url(#linear-gradient)"/>
      <path id="路径_8565" data-name="路径 8565" d="M116.412,234.008a26.913,26.913,0,0,0-.483-5.054,3.027,3.027,0,0,0-.465-.039H87.125a3.021,3.021,0,0,0-3.021,3.021v13.212A10.917,10.917,0,0,0,92.98,255.87H85.069a2.023,2.023,0,0,0,0,4.045H96.544a26.828,26.828,0,0,0,19.868-25.907ZM92.465,244.83a2.023,2.023,0,0,1-4.045,0v-6.6a2.023,2.023,0,0,1,4.045,0Z" transform="translate(0 0)" fill="url(#linear-gradient)"/>
      <path id="路径_8566" data-name="路径 8566" d="M128.279,228.915H106.7a3.021,3.021,0,0,0-3.021,3.021v13.212a10.844,10.844,0,0,0,1.739,5.91,26.83,26.83,0,0,0,22.86-22.143ZM112.041,244.83a2.023,2.023,0,1,1-4.045,0v-6.6a2.023,2.023,0,1,1,4.045,0Z" transform="translate(-19.575 0)" fill="url(#linear-gradient)"/>
      <path id="路径_8567" data-name="路径 8567" d="M108,238.5v-.265a2.02,2.02,0,0,1,3.086-1.718,27,27,0,0,0,6.926-7.6H106.7a3.021,3.021,0,0,0-3.021,3.021v8.46A26.711,26.711,0,0,0,108,238.5Z" transform="translate(-19.575 0)" fill="url(#linear-gradient)"/>
    </g>
  </g>
</svg>
