<svg xmlns="http://www.w3.org/2000/svg" xmlns:xlink="http://www.w3.org/1999/xlink" width="80" height="80" viewBox="0 0 80 80">
  <defs>
    <linearGradient id="linear-gradient" x1="0.5" x2="0.5" y2="1" gradientUnits="objectBoundingBox">
      <stop offset="0" stop-color="#ffbaaf"/>
      <stop offset="1" stop-color="#fe6752"/>
    </linearGradient>
  </defs>
  <g id="组_4497" data-name="组 4497" transform="translate(-198 -325)">
    <circle id="椭圆_33" data-name="椭圆 33" cx="40" cy="40" r="40" transform="translate(198 325)" opacity="0.2" fill="url(#linear-gradient)"/>
    <g id="组_4491" data-name="组 4491" transform="translate(0 -3)">
      <path id="路径_8434" data-name="路径 8434" d="M351.909,244.177c1.292-1.768,5.048-3.044,3.127-4.437l-22.462-12.682a4.168,4.168,0,0,0-5.771.695l-4.016,5.528a1.689,1.689,0,0,0,.028,1.841s2.564,2.682.539,5.49" transform="translate(-97.923 117.036)" fill="url(#linear-gradient)"/>
      <path id="路径_8436" data-name="路径 8436" d="M273.071,300.117s4.037-2.731,1.782-3.294l-31.826-7.435a4.11,4.11,0,0,0-5.048,2.839l-1.685,6.668a1.654,1.654,0,0,0,.695,1.671s3.367,1.539,2.522,4.906" transform="translate(-17.633 58.354)" fill="url(#linear-gradient)"/>
      <path id="减去_14" data-name="减去 14" d="M-15785.514-2591.438h-.057l-36.169-.111h-.029a4.213,4.213,0,0,1-2.972-1.218,4.2,4.2,0,0,1-1.261-2.953v-4.969a1.116,1.116,0,0,1,.8-1.041c2.688-.746,4.056-2.245,4.063-4.456s-1.344-3.72-4.016-4.5a1.072,1.072,0,0,1-.8-1.041v-5.108a4.215,4.215,0,0,1,1.263-2.954,4.207,4.207,0,0,1,2.969-1.217h.057l36.169.111h.007a4.211,4.211,0,0,1,2.978,1.221,4.21,4.21,0,0,1,1.258,2.962v5.139l0-.024a1.089,1.089,0,0,1-.771,1.044c-2.675.822-4.035,2.313-4.043,4.433s1.342,3.628,4.015,4.46a1.077,1.077,0,0,1,.763,1.041v5a4.2,4.2,0,0,1-1.261,2.954A4.207,4.207,0,0,1-15785.514-2591.438Zm-22.039-11.233h3.4v2.915a1.029,1.029,0,0,0,.175.7.836.836,0,0,0,.524.183.491.491,0,0,0,.075,0,.793.793,0,0,0,.619-.175,1.277,1.277,0,0,0,.14-.7v-2.915h3.439a.659.659,0,0,0,.094.007.6.6,0,0,0,.423-.17.605.605,0,0,0,.179-.508.622.622,0,0,0-.175-.524.614.614,0,0,0-.432-.177.609.609,0,0,0-.089.006h-3.439l.023-2.046h3.439a.605.605,0,0,0,.1.009.6.6,0,0,0,.417-.167.606.606,0,0,0,.179-.509.614.614,0,0,0-.175-.524.609.609,0,0,0-.427-.179.569.569,0,0,0-.094.008h-2.458l2.955-4.865a1.085,1.085,0,0,0,.21-.608.588.588,0,0,0-.31-.421,1.1,1.1,0,0,0-.5-.179h-.012c-.151,0-.323.158-.512.469l-1.669,2.8-1.664,2.808h-.4l-3.4-5.692c-.155-.254-.306-.393-.461-.425a.7.7,0,0,0-.1-.007.68.68,0,0,0-.432.154c-.352.232-.4.572-.146,1.041l1.493,2.458,1.489,2.462h-2.514c-.435,0-.655.234-.655.7a.606.606,0,0,0,.179.512.6.6,0,0,0,.416.167.6.6,0,0,0,.1-.008h3.4v2.033h-3.439c-.435,0-.655.234-.655.7a.6.6,0,0,0,.179.512.6.6,0,0,0,.417.171.584.584,0,0,0,.1-.008Z" transform="translate(16041.625 2976.19)" fill="url(#linear-gradient)"/>
    </g>
  </g>
</svg>
