<svg xmlns="http://www.w3.org/2000/svg" xmlns:xlink="http://www.w3.org/1999/xlink" width="80" height="80" viewBox="0 0 80 80">
  <defs>
    <linearGradient id="linear-gradient" x1="0.5" x2="0.5" y2="1" gradientUnits="objectBoundingBox">
      <stop offset="0" stop-color="#ffbaaf"/>
      <stop offset="1" stop-color="#fe6752"/>
    </linearGradient>
  </defs>
  <g id="组_4507" data-name="组 4507" transform="translate(-198 -663)">
    <circle id="椭圆_33" data-name="椭圆 33" cx="40" cy="40" r="40" transform="translate(198 663)" opacity="0.2" fill="url(#linear-gradient)"/>
    <g id="组_4447" data-name="组 4447" transform="translate(206.808 680.449)">
      <path id="路径_8450" data-name="路径 8450" d="M30.988,37.969a14.97,14.97,0,0,1-14.218-8.6A14.968,14.968,0,0,1,18.4,13.119c3.6-4.761,8.612-6.649,14.544-5.941a14.588,14.588,0,0,1,7.807,3.481c1.228,1.043,1.2,1.509-.163,2.288-1.184.678-2.372,1.347-3.547,2.037-3.252,1.905-6.526,3.78-9.743,5.747a3.079,3.079,0,0,0-1.1,4.48c1.043,1.888,3.058,2.324,5.2,1.087,6.354-3.666,12.691-7.38,19.063-11.019a1.456,1.456,0,0,0,.7-2.235A20.927,20.927,0,0,0,43.829,4.3C36.634-.58,28.964-1.363,21.1,2.342,13.267,6.039,9.007,12.525,8.3,21.08c-.585,7.089,2.112,13.092,7.23,18.034a22.359,22.359,0,0,0,27.257,2.434C44.92,40.1,44.92,40.1,43.6,37.9c-1.43-2.381-2.852-2.821-5.333-1.633a14.752,14.752,0,0,1-7.274,1.7Z" transform="translate(0)" fill="url(#linear-gradient)"/>
      <path id="路径_8451" data-name="路径 8451" d="M845.094,529.036a10.981,10.981,0,0,0-1.839-4.515c-.26-.466-.678-.286-1.052-.075-1.461.836-2.918,1.681-4.387,2.5a.857.857,0,0,0-.374,1.377c.841,1.413,1.672,2.83,2.473,4.264.348.621.77.766,1.373.383.88-.554,1.791-1.074,2.64-1.672A2.56,2.56,0,0,0,845.094,529.036Z" transform="translate(-792.534 -501.14)" fill="url(#linear-gradient)"/>
    </g>
  </g>
</svg>
