<svg xmlns="http://www.w3.org/2000/svg" xmlns:xlink="http://www.w3.org/1999/xlink" width="80" height="80" viewBox="0 0 80 80">
  <defs>
    <linearGradient id="linear-gradient" x1="0.5" x2="0.5" y2="1" gradientUnits="objectBoundingBox">
      <stop offset="0" stop-color="#bcd7ff"/>
      <stop offset="1" stop-color="#4194fe"/>
    </linearGradient>
  </defs>
  <g id="组_4515" data-name="组 4515" transform="translate(-610 -832)">
    <circle id="椭圆_39" data-name="椭圆 39" cx="40" cy="40" r="40" transform="translate(610 832)" opacity="0.2" fill="url(#linear-gradient)"/>
    <path id="路径_8571" data-name="路径 8571" d="M636.825,1245.221c4.664,0,9.329.042,13.993-.026,1.393-.02,1.781.391,1.441,1.75-.656,2.624-1.083,5.319-2.475,7.7-.7,1.2-.51,1.764.943,1.577s1.655.335,1.3,1.675c-1.422,5.4-3.55,10.3-8.814,13.084-.647.343-.6.891-.678,1.435-1.418,9.607-8.074,16.876-17.209,18.8-9.877,2.075-20.034-1.948-24.89-10.272a23.939,23.939,0,0,1,4.984-29.615c5.347-4.647,11.8-5.828,18.547-6.011,4.283-.116,8.572-.022,12.858-.022Zm6.253,6.732c-.746,0-1.373,0-2,0q-9.831.044-19.662.091a18.669,18.669,0,0,0-4.465.739c-9.536,2.407-14.64,10.97-12.395,20.774,1.888,8.245,10.273,13.2,19.437,11.248,5.122-1.09,8.948-3.9,10.775-9.127.6-1.708,1.455-3.307,1.479-5.164.011-.859.743-1.1,1.242-1.541a15.477,15.477,0,0,0,4.873-6.971c.71-2.313.729-2.307-1.7-2.708A23.156,23.156,0,0,0,643.077,1251.954Z" transform="translate(26.274 -394.131)" fill="url(#linear-gradient)"/>
    <path id="减去_19" data-name="减去 19" d="M-15812.428-2592.645c-5.109,0-9.918-2.76-11.966-6.869a14.235,14.235,0,0,1,6.089-19.293,16.732,16.732,0,0,1,5.736-1.812,69.01,69.01,0,0,1,7.813-.372c1.245,0,2.5.017,3.721.033h.1c1.336.018,2.543.033,3.776.033,1.542,0,2.89-.025,4.121-.077a13.063,13.063,0,0,1-2.889,6.661c1.514.266,2.314.427,2.524.862s-.157,1.161-.947,2.614a6.373,6.373,0,0,1-2.569,2.955c-1.614.768-1.788,2.051-1.989,3.537l-.018.129c-.664,4.828-3.021,8.228-7,10.105A15.185,15.185,0,0,1-15812.428-2592.645Zm6.333-18.135q-.086,0-.161,0a1.728,1.728,0,0,0-1.744,1.835,1.969,1.969,0,0,0,.512,1.472,1.962,1.962,0,0,0,1.427.511h.067q.11,0,.22-.013c.989-.1,1.548-.759,1.659-1.961a1.836,1.836,0,0,0-1.931-1.847Zm-11.205,0a1.846,1.846,0,0,0-1.356.476,1.943,1.943,0,0,0-.479,1.434c0,.054,0,.112,0,.184,0,.039.008.091.017.151a1.6,1.6,0,0,0,1.38,1.551,2.424,2.424,0,0,0,.388.029c.047,0,.095,0,.143,0a1.767,1.767,0,0,0,1.823-1.95,1.766,1.766,0,0,0-1.357-1.807A2.411,2.411,0,0,0-15817.3-2610.784Z" transform="translate(16458.756 3481.145)" fill="#fff" stroke="rgba(0,0,0,0)" stroke-miterlimit="10" stroke-width="1"/>
  </g>
</svg>
