<svg xmlns="http://www.w3.org/2000/svg" xmlns:xlink="http://www.w3.org/1999/xlink" width="80" height="80" viewBox="0 0 80 80">
  <defs>
    <linearGradient id="linear-gradient" x1="0.5" x2="0.5" y2="1" gradientUnits="objectBoundingBox">
      <stop offset="0" stop-color="#ffe2a7"/>
      <stop offset="1" stop-color="#ffba24"/>
    </linearGradient>
  </defs>
  <g id="组_4502" transform="translate(-198 -494)">
    <circle id="椭圆_37" cx="40" cy="40" r="40" transform="translate(198 494)" opacity="0.2" fill="url(#linear-gradient)"/>
    <path id="路径_8447" d="M9.982,132.183c.089,1.174.222,2.358.267,3.537a5.814,5.814,0,0,1-2.569,5.222,12.787,12.787,0,0,1-4.527,2.091,2.447,2.447,0,0,1-3.025-3.042,12.4,12.4,0,0,1,1.218-3.165,29.635,29.635,0,0,0,2.987-7.608,7.9,7.9,0,0,1,.528-1.446,1.763,1.763,0,0,1,2.1-.962,9.725,9.725,0,0,1,1.757.74c.9.467,1.769,1,2.647,1.507.539-.578,1.057-1.19,1.618-1.746a23.284,23.284,0,0,1,6.869-4.338,56.1,56.1,0,0,1,12.057-4.182,46.833,46.833,0,0,1,5.906-.812,70.438,70.438,0,0,1,7.1-.206,20.443,20.443,0,0,1,8.9,1.891,4.936,4.936,0,0,1,3.053,3.537,14.089,14.089,0,0,1-.022,3.715,20.477,20.477,0,0,1-1.908,5.9,3.145,3.145,0,0,1-1.3,1.2,12.785,12.785,0,0,1-4.116,1.4,22.22,22.22,0,0,1-11.88-.962,15.691,15.691,0,0,1-5.834-4.043c-.178-.178-.317-.417-.534-.517s-.59-.2-.751-.089a.867.867,0,0,0-.222.729,1.831,1.831,0,0,0,.467.762,17.259,17.259,0,0,0,8.937,5.233,22.7,22.7,0,0,0,12.486-.45,6.66,6.66,0,0,0,.7-.273,2.779,2.779,0,0,1,.745-.273c-.456.662-.884,1.335-1.357,1.98a23.414,23.414,0,0,1-12.458,8.8,18.834,18.834,0,0,1-9.877.028,35.614,35.614,0,0,1-14.849-7.308,15.085,15.085,0,0,1-3.515-3.926,7.6,7.6,0,0,1-.8-1.9,1.2,1.2,0,0,0-.8-1.018ZM49.87,119.1c-.634.061-1.279.083-1.908.184a5.441,5.441,0,0,0-2.675,1.112,1.014,1.014,0,0,0,.156,1.791,4.518,4.518,0,0,0,.984.384,12.314,12.314,0,0,0,4.666.139,9.544,9.544,0,0,0,2.341-.634,1.3,1.3,0,0,0,.884-1.279c-.028-.606-.517-.823-.962-1.034a8.2,8.2,0,0,0-3.487-.662ZM31.583,126.2a1.547,1.547,0,0,0,1.641-1.468,1.59,1.59,0,0,0-1.652-1.479,1.482,1.482,0,1,0,.011,2.948Zm7.147,35.366c-.428,0-.84.028-1.24-.011-.111-.011-.261-.2-.295-.339-.3-1.168-.551-2.358-.879-3.52a4.393,4.393,0,0,0-.623-1.29.888.888,0,0,0-1.529-.117,7.634,7.634,0,0,0-1.1,1.813,25.172,25.172,0,0,0-.962,2.937c-.117.412-.261.623-.712.551a6.043,6.043,0,0,0-.845-.006c.067-1.7.122-3.348.189-5.15a6.563,6.563,0,0,0-.94.478,18.324,18.324,0,0,0-1.557,1.374c-.884.9-1.741,1.835-2.6,2.77-.539.584-.729.645-1.657.428,1.1-1.863,2.186-3.71,3.309-5.595a3.153,3.153,0,0,1-2.419-1.846,2.781,2.781,0,0,1,.067-2.08c.067.239.117.489.189.729a2.068,2.068,0,0,0,2.681,1.513,1.68,1.68,0,0,0,.845-.645c1.079-1.741,2.119-3.5,3.142-5.272a.586.586,0,0,1,.729-.323,12.233,12.233,0,0,0,5.083.072c.373-.1.729-.256,1.123-.395v13.926Z" transform="translate(209.967 394.246)" stroke="rgba(0,0,0,0)" stroke-miterlimit="10" stroke-width="1" fill="url(#linear-gradient)"/>
  </g>
</svg>
