<svg xmlns="http://www.w3.org/2000/svg" xmlns:xlink="http://www.w3.org/1999/xlink" width="80" height="80" viewBox="0 0 80 80">
  <defs>
    <linearGradient id="linear-gradient" x1="0.5" x2="0.5" y2="1" gradientUnits="objectBoundingBox">
      <stop offset="0" stop-color="#bcd7ff"/>
      <stop offset="1" stop-color="#4194fe"/>
    </linearGradient>
  </defs>
  <g id="组_4509" data-name="组 4509" transform="translate(-473 -663)">
    <circle id="椭圆_35" data-name="椭圆 35" cx="40" cy="40" r="40" transform="translate(473 663)" opacity="0.2" fill="url(#linear-gradient)"/>
    <path id="路径_8499" data-name="路径 8499" d="M1.854,282.51a1.936,1.936,0,0,1,1.184-.318,2.6,2.6,0,0,1,1.415.434,6.561,6.561,0,0,1,1.665,1.527q.718.845,1.476,1.652a18.087,18.087,0,0,0,1.835,1.733,10.542,10.542,0,0,0,2.8,1.636,10.871,10.871,0,0,0,1.628.434c.386.037.766.123,1.154.136H29.761c.284-.011.563-.073.849-.085a9.9,9.9,0,0,0,3.482-.965,13.3,13.3,0,0,0,1.644-.986,15.714,15.714,0,0,0,1.318-1.095,15.5,15.5,0,0,0,1.184-1.181c.251-.284.523-.547.752-.852a10.577,10.577,0,0,1,1.342-1.615,2.741,2.741,0,0,1,1.167-.646,1.842,1.842,0,0,1,1.264.166,3.017,3.017,0,0,1,1.157,1.462,6.881,6.881,0,0,1,.506,1.744c.091.408.115.827.184,1.239.024.292.032.584.075.873V302.11H0v-11.5c.022-.889,0-1.778.01-2.665.007-.337-.013-.675.026-1.009.08-.458.08-.926.2-1.377a7.243,7.243,0,0,1,.484-1.627,3.387,3.387,0,0,1,1.139-1.424Zm5.514,7.8a5.673,5.673,0,0,0-1.218.523,4.8,4.8,0,0,0-1.995,2.314,3.638,3.638,0,0,0-.343,1.457,2.975,2.975,0,0,0,0,.982,3.457,3.457,0,0,0,.365,1.5,4.6,4.6,0,0,0,.694,1.138,4.677,4.677,0,0,0,1.069.961,5.311,5.311,0,0,0,2.08.809c.079,0,.188.032.234-.059a5.472,5.472,0,0,1-.418-.662,5.611,5.611,0,0,1-.437-1.3c-.059-.254-.1-.511-.156-.766a4.844,4.844,0,0,1-.043-.632,4.29,4.29,0,0,1-.038-.718c-.008-.654,0-1.311,0-1.965-.007-.213.062-.418.049-.631a7.571,7.571,0,0,1,.622-2.307,7.718,7.718,0,0,1,.428-.7,1.381,1.381,0,0,0-.9.058Zm1.836-.1a.787.787,0,0,0,.106.22,3.411,3.411,0,0,1,.442.768,7.167,7.167,0,0,1,.375,1.345c.032.185.086.367.118.553a2.455,2.455,0,0,0,.043.482c.031.4-.021.806.048,1.2a3.963,3.963,0,0,1-.031.8c-.011.313,0,.627-.016.94a3.6,3.6,0,0,0-.048.49c-.035.2-.086.4-.117.606a6.612,6.612,0,0,1-.42,1.507,5.222,5.222,0,0,1-.5.807A.954.954,0,0,0,9.9,299.9a5.614,5.614,0,0,0,1.824-.855,6.985,6.985,0,0,0,.852-.8,4.71,4.71,0,0,0,.951-1.821,2.683,2.683,0,0,0,.126-.574c0-.252.059-.5.04-.755a7.791,7.791,0,0,0-.051-.906,5.02,5.02,0,0,0-2.681-3.533,3.526,3.526,0,0,0-1.757-.443Zm24.952.251a4.806,4.806,0,0,0-2.009,1.39,5.2,5.2,0,0,0-1.009,1.762,5.8,5.8,0,0,0-.185,1.877c.049.193.022.4.075.59a4.34,4.34,0,0,0,.394,1.17,4.83,4.83,0,0,0,2.014,2.122,5.868,5.868,0,0,0,1.567.583,1.421,1.421,0,0,0,.41.034.186.186,0,0,0-.048-.179,3.668,3.668,0,0,1-.71-1.562,7.019,7.019,0,0,1-.24-1.141c-.058-.209-.008-.431-.064-.64a4.876,4.876,0,0,0-.054-.59q-.022-.756,0-1.516c.064-.271.011-.557.079-.83a5.967,5.967,0,0,1,.264-1.559,3.839,3.839,0,0,1,.638-1.487.462.462,0,0,0,.1-.275,2.833,2.833,0,0,0-1.229.253Zm2.218-.207a5.52,5.52,0,0,1,.466.75,11.13,11.13,0,0,1,.566,2.052,21.391,21.391,0,0,1,.067,2.442,9.7,9.7,0,0,1-.045,1.294,5.193,5.193,0,0,1-.192,1.136,6.437,6.437,0,0,1-.405,1.314c-.12.268-.343.474-.464.741a1.524,1.524,0,0,0,.456-.021,6.164,6.164,0,0,0,1.376-.48A4.892,4.892,0,0,0,40.54,296.9a3.438,3.438,0,0,0,.287-1.219,5.989,5.989,0,0,0,.037-.941,4.611,4.611,0,0,0-.988-2.653,6.68,6.68,0,0,0-.638-.7,4.959,4.959,0,0,0-1.931-1.068A1.46,1.46,0,0,0,36.375,290.254Zm-15.462,3.655a.33.33,0,0,0-.151.463c.4.607.841,1.183,1.263,1.771.163.008.327.01.49,0,.107.013.166-.1.223-.166.351-.525.747-1.017,1.117-1.527a.333.333,0,0,0,.008-.428,1.023,1.023,0,0,0-.538-.287c-.626-.013-1.251,0-1.878-.006a1.074,1.074,0,0,0-.534.175Zm.8,3.447a2.65,2.65,0,0,0-.07.7,8.5,8.5,0,0,1-.183.879,2.256,2.256,0,0,1-2.247,1.541,4.323,4.323,0,0,1-1.684-.437,1.25,1.25,0,0,0-.482-.206,1.282,1.282,0,0,0-.043.533c.065.26.323.389.539.508a6.7,6.7,0,0,0,1.668.407,2.7,2.7,0,0,0,.526-.078,3.389,3.389,0,0,0,1.532-.566,3.514,3.514,0,0,0,.768-.889c.088-.144.278-.07.415-.089a5.069,5.069,0,0,1,.5.638,2.774,2.774,0,0,0,1.38.811,4.255,4.255,0,0,0,1.391.115c.195-.04.393-.065.589-.094a4.624,4.624,0,0,0,.756-.257,1.132,1.132,0,0,0,.568-.544c.089-.184-.007-.378-.053-.559a5.673,5.673,0,0,1-1.77.667q-.475.02-.951,0a2.213,2.213,0,0,1-1.382-.82,3.136,3.136,0,0,1-.514-1.524,2.253,2.253,0,0,0-.148-.734,2.972,2.972,0,0,0-1.1,0h0Zm0,0" transform="translate(490.859 420.441)" fill="url(#linear-gradient)"/>
    <path id="联合_10" data-name="联合 10" d="M-15793.194-2609.01a8.452,8.452,0,0,1-5.191-1.863,2.192,2.192,0,0,1-1.132,1.8l-.619-1.1a1.043,1.043,0,0,0,.444-.838v-3.448h1.311v1.8a7.5,7.5,0,0,0,.624.6v-3.908h-1.958v-1.315h1.958v-1.43h-1.914v-1.315h1.914v-.941h1.311v.941h1.692v1.315h-1.692v1.43h1.692v1.315h-1.692v1.513h1.692v1.311h-1.692v1.982a6.956,6.956,0,0,0,3.253.838h4.881v1.315Zm11.284-.008v-7.245h-2.928v6.3h-1.314v-7.614h4.242v-1.148h-4.945v-1.311h4.945v-.914h1.311v.914h4.992v1.311h-4.992v1.148h4.285v5.509a3.3,3.3,0,0,1-.675,1.855,4.935,4.935,0,0,1-.429.477l-.68-1.2a.731.731,0,0,0,.075-.092,2.022,2.022,0,0,0,.39-1.044c0-.767,0-3.054,0-4.2h-2.971v7.245Zm-25.265-.016a1.956,1.956,0,0,1-1.95-1.95v-5.922h7.92v5.922a1.956,1.956,0,0,1-1.95,1.95Zm2.665-1.315h1.354a.643.643,0,0,0,.635-.635v-1.339h-1.989Zm-3.3-.635a.643.643,0,0,0,.636.635h1.354v-1.974h-1.99Zm3.3-2.653h1.989v-1.954h-1.989Zm-3.3,0h1.99v-1.954h-1.99Zm-5.414,3.412a6.768,6.768,0,0,0,1.656-1.374,2.01,2.01,0,0,0,.39-1.044v-1.116l-1.362.81-.675-1.124,2.041-1.219c0-.5,0-1,0-1.462l-1.37.818-.675-1.128,2.041-1.215c0-.159,0-.314,0-.457a.8.8,0,0,0-.211-.62,2.5,2.5,0,0,0-1.572-.31h-.194v-1.311c.051,0,.11,0,.175,0a3.492,3.492,0,0,1,2.506.683,2.086,2.086,0,0,1,.607,1.545c.012,1,.008,2.387,0,3.856,0,.751,0,1.517,0,2.252a3.3,3.3,0,0,1-.667,1.859,7.922,7.922,0,0,1-2.042,1.7Zm-5.866-2.033a7.843,7.843,0,0,1-1.116-1.72c-1.092,2.308-3.344,3.821-5.151,4.838l-.643-1.144c2.927-1.648,4.516-3.324,4.984-5.314h-4.934v-1.311h5.084v-2.776h-4.571V-2621h10.454v1.315h-4.567v2.776h5.1v1.311h-4.945c.469,1.99,2.058,3.666,4.984,5.314l-.644,1.144A14.552,14.552,0,0,1-15819.091-2612.259Zm25,1.207v-4.842h5.549l0,2.772a2.074,2.074,0,0,1-2.073,2.069Zm1.314-1.311h2.156a.761.761,0,0,0,.759-.759v-1.461h-2.915Zm-1.263-5.183a2.556,2.556,0,0,0,1.235-1.771h-1.312v-1.315h5.573v2.327a2.073,2.073,0,0,1-1.22,1.887l-.628-1.16a.761.761,0,0,0,.532-.727v-1.013h-1.62a3.875,3.875,0,0,1-1.9,2.907Zm-9.739-.23v-1.057h-2.792v1.057h-1.314v-1.057h-1.235v-1.315h1.235V-2621h1.314v.854h2.792V-2621h1.311v.854h1.264v1.315h-1.264v1.057Z" transform="translate(16314 3307)" fill="url(#linear-gradient)"/>
  </g>
</svg>
