<svg xmlns="http://www.w3.org/2000/svg" xmlns:xlink="http://www.w3.org/1999/xlink" width="80" height="80" viewBox="0 0 80 80">
  <defs>
    <linearGradient id="linear-gradient" x1="0.5" x2="0.5" y2="1" gradientUnits="objectBoundingBox">
      <stop offset="0" stop-color="#ffbaaf"/>
      <stop offset="1" stop-color="#fe6752"/>
    </linearGradient>
  </defs>
  <g id="组_4514" data-name="组 4514" transform="translate(-473 -832)">
    <circle id="椭圆_33" data-name="椭圆 33" cx="40" cy="40" r="40" transform="translate(473 832)" opacity="0.2" fill="url(#linear-gradient)"/>
    <g id="组_4492" data-name="组 4492" transform="translate(0.136 0.463)">
      <path id="联合_9" data-name="联合 9" d="M-15780.619-2610.078a1.009,1.009,0,0,0,.433-.814v-5.552h-2.9v-1.315h7.471v1.315h-3.3v5.517a2.124,2.124,0,0,1-1.1,1.918Zm-6.427,1.068V-2621h.644a5.071,5.071,0,0,1,.667.04v-.04h0v.04a2.6,2.6,0,0,1,1.529.647,2.086,2.086,0,0,1,.607,1.545c0,.25.008.337.008.354v.536c0,.759-.008,2.145-.008,2.887a3.316,3.316,0,0,1-.667,1.863,7.2,7.2,0,0,1-1.474,1.334v2.784Zm1.311-6.371v1.906a4.136,4.136,0,0,0,.441-.469,2.03,2.03,0,0,0,.389-1.049v-.886Zm0-1.529.834-.5v-1c0-.016,0-.1,0-.345a.794.794,0,0,0-.21-.62,1.216,1.216,0,0,0-.616-.262Zm-5.009,7.9h-7.192a2.079,2.079,0,0,1-2.077-2.077V-2621h11.5v9.914a2.077,2.077,0,0,1-2.077,2.077Zm-7.951-2.077a.762.762,0,0,0,.759.762h7.348a.763.763,0,0,0,.763-.762v-8.6h-8.869Zm-8.464,2.077a1.957,1.957,0,0,1-1.954-1.95v-5.938h7.932v5.938a1.956,1.956,0,0,1-1.95,1.95Zm2.669-1.315h1.358a.643.643,0,0,0,.636-.635v-1.342h-1.994Zm-3.309-.635a.643.643,0,0,0,.64.635h1.354v-1.978h-1.994Zm3.309-2.661h1.994v-1.958h-1.994Zm-3.309,0h1.994v-1.958h-1.994Zm-11.212,1.461a7.824,7.824,0,0,1-1.132-1.74c-1.1,2.335-3.381,3.865-5.207,4.889l-.651-1.156c2.963-1.664,4.567-3.36,5.044-5.37h-4.993v-1.327h5.144v-2.812h-4.623V-2621h10.569v1.326h-4.619v2.3l0,.516h5.151v1.327h-5c.473,2.01,2.077,3.706,5.041,5.37l-.651,1.156A14.72,14.72,0,0,1-15819.011-2612.159Zm5.786,1.958a6.659,6.659,0,0,0,1.661-1.378,2.017,2.017,0,0,0,.389-1.045v-1.12l-1.366.814-.671-1.132,2.045-1.219v-1.466l-1.374.822-.671-1.132,2.041-1.219c0-.159,0-.31,0-.457a.779.779,0,0,0-.21-.62c-.342-.333-1.145-.318-1.573-.314-.071,0-.139,0-.2,0v-1.315c.051,0,.11,0,.175,0a3.51,3.51,0,0,1,2.514.683,2.1,2.1,0,0,1,.607,1.549c.017,1,.013,2.4.008,3.868,0,.751-.008,1.517-.008,2.256a3.292,3.292,0,0,1-.671,1.863,7.9,7.9,0,0,1-2.046,1.7Zm35.023-4.77,1.264-.369,1.338,4.532-1.263.369Zm-5.317,4.163,1.338-4.532,1.263.369-1.338,4.532Zm-14.37-.616v-1.275h2.84v-2.129h-2.84v-1.275h2.84v-1.2h-2.84v-1.271h7.248v1.271h-3.086v1.2h3.086v1.275h-3.086v2.129h1.768v-.961h1.318v2.236Zm-5.875-6.347v-1.056h-2.8v1.056h-1.314v-1.056h-1.239v-1.315h1.239V-2621h1.314v.858h2.8V-2621h1.315v.858h1.267v1.315h-1.267v1.056Zm21.186-1.831v-1.311h6.454v1.311Z" transform="translate(16313.865 3475.538)" fill="url(#linear-gradient)"/>
      <path id="路径_8499" data-name="路径 8499" d="M1.854,282.51a1.936,1.936,0,0,1,1.184-.318,2.6,2.6,0,0,1,1.415.434,6.561,6.561,0,0,1,1.665,1.527q.718.845,1.476,1.652a18.087,18.087,0,0,0,1.835,1.733,10.542,10.542,0,0,0,2.8,1.636,10.871,10.871,0,0,0,1.628.434c.386.037.766.123,1.154.136H29.761c.284-.011.563-.073.849-.085a9.9,9.9,0,0,0,3.482-.965,13.3,13.3,0,0,0,1.644-.986,15.714,15.714,0,0,0,1.318-1.095,15.5,15.5,0,0,0,1.184-1.181c.251-.284.523-.547.752-.852a10.577,10.577,0,0,1,1.342-1.615,2.741,2.741,0,0,1,1.167-.646,1.842,1.842,0,0,1,1.264.166,3.017,3.017,0,0,1,1.157,1.462,6.881,6.881,0,0,1,.506,1.744c.091.408.115.827.184,1.239.024.292.032.584.075.873V302.11H0v-11.5c.022-.889,0-1.778.01-2.665.007-.337-.013-.675.026-1.009.08-.458.08-.926.2-1.377a7.243,7.243,0,0,1,.484-1.627,3.387,3.387,0,0,1,1.139-1.424Zm5.514,7.8a5.673,5.673,0,0,0-1.218.523,4.8,4.8,0,0,0-1.995,2.314,3.638,3.638,0,0,0-.343,1.457,2.975,2.975,0,0,0,0,.982,3.457,3.457,0,0,0,.365,1.5,4.6,4.6,0,0,0,.694,1.138,4.677,4.677,0,0,0,1.069.961,5.311,5.311,0,0,0,2.08.809c.079,0,.188.032.234-.059a5.472,5.472,0,0,1-.418-.662,5.611,5.611,0,0,1-.437-1.3c-.059-.254-.1-.511-.156-.766a4.844,4.844,0,0,1-.043-.632,4.29,4.29,0,0,1-.038-.718c-.008-.654,0-1.311,0-1.965-.007-.213.062-.418.049-.631a7.571,7.571,0,0,1,.622-2.307,7.718,7.718,0,0,1,.428-.7,1.381,1.381,0,0,0-.9.058Zm1.836-.1a.787.787,0,0,0,.106.22,3.411,3.411,0,0,1,.442.768,7.167,7.167,0,0,1,.375,1.345c.032.185.086.367.118.553a2.455,2.455,0,0,0,.043.482c.031.4-.021.806.048,1.2a3.963,3.963,0,0,1-.031.8c-.011.313,0,.627-.016.94a3.6,3.6,0,0,0-.048.49c-.035.2-.086.4-.117.606a6.612,6.612,0,0,1-.42,1.507,5.222,5.222,0,0,1-.5.807A.954.954,0,0,0,9.9,299.9a5.614,5.614,0,0,0,1.824-.855,6.985,6.985,0,0,0,.852-.8,4.71,4.71,0,0,0,.951-1.821,2.683,2.683,0,0,0,.126-.574c0-.252.059-.5.04-.755a7.791,7.791,0,0,0-.051-.906,5.02,5.02,0,0,0-2.681-3.533,3.526,3.526,0,0,0-1.757-.443Zm24.952.251a4.806,4.806,0,0,0-2.009,1.39,5.2,5.2,0,0,0-1.009,1.762,5.8,5.8,0,0,0-.185,1.877c.049.193.022.4.075.59a4.34,4.34,0,0,0,.394,1.17,4.83,4.83,0,0,0,2.014,2.122,5.868,5.868,0,0,0,1.567.583,1.421,1.421,0,0,0,.41.034.186.186,0,0,0-.048-.179,3.668,3.668,0,0,1-.71-1.562,7.019,7.019,0,0,1-.24-1.141c-.058-.209-.008-.431-.064-.64a4.876,4.876,0,0,0-.054-.59q-.022-.756,0-1.516c.064-.271.011-.557.079-.83a5.967,5.967,0,0,1,.264-1.559,3.839,3.839,0,0,1,.638-1.487.462.462,0,0,0,.1-.275,2.833,2.833,0,0,0-1.229.253Zm2.218-.207a5.52,5.52,0,0,1,.466.75,11.13,11.13,0,0,1,.566,2.052,21.391,21.391,0,0,1,.067,2.442,9.7,9.7,0,0,1-.045,1.294,5.193,5.193,0,0,1-.192,1.136,6.437,6.437,0,0,1-.405,1.314c-.12.268-.343.474-.464.741a1.524,1.524,0,0,0,.456-.021,6.164,6.164,0,0,0,1.376-.48A4.892,4.892,0,0,0,40.54,296.9a3.438,3.438,0,0,0,.287-1.219,5.989,5.989,0,0,0,.037-.941,4.611,4.611,0,0,0-.988-2.653,6.68,6.68,0,0,0-.638-.7,4.959,4.959,0,0,0-1.931-1.068A1.46,1.46,0,0,0,36.375,290.254Zm-15.462,3.655a.33.33,0,0,0-.151.463c.4.607.841,1.183,1.263,1.771.163.008.327.01.49,0,.107.013.166-.1.223-.166.351-.525.747-1.017,1.117-1.527a.333.333,0,0,0,.008-.428,1.023,1.023,0,0,0-.538-.287c-.626-.013-1.251,0-1.878-.006a1.074,1.074,0,0,0-.534.175Zm.8,3.447a2.65,2.65,0,0,0-.07.7,8.5,8.5,0,0,1-.183.879,2.256,2.256,0,0,1-2.247,1.541,4.323,4.323,0,0,1-1.684-.437,1.25,1.25,0,0,0-.482-.206,1.282,1.282,0,0,0-.043.533c.065.26.323.389.539.508a6.7,6.7,0,0,0,1.668.407,2.7,2.7,0,0,0,.526-.078,3.389,3.389,0,0,0,1.532-.566,3.514,3.514,0,0,0,.768-.889c.088-.144.278-.07.415-.089a5.069,5.069,0,0,1,.5.638,2.774,2.774,0,0,0,1.38.811,4.255,4.255,0,0,0,1.391.115c.195-.04.393-.065.589-.094a4.624,4.624,0,0,0,.756-.257,1.132,1.132,0,0,0,.568-.544c.089-.184-.007-.378-.053-.559a5.673,5.673,0,0,1-1.77.667q-.475.02-.951,0a2.213,2.213,0,0,1-1.382-.82,3.136,3.136,0,0,1-.514-1.524,2.253,2.253,0,0,0-.148-.734,2.972,2.972,0,0,0-1.1,0h0Zm0,0" transform="translate(490.724 587.353)" fill="url(#linear-gradient)"/>
    </g>
  </g>
</svg>
