<svg xmlns="http://www.w3.org/2000/svg" xmlns:xlink="http://www.w3.org/1999/xlink" width="80" height="80" viewBox="0 0 80 80">
  <defs>
    <linearGradient id="linear-gradient" x1="0.5" x2="0.5" y2="1" gradientUnits="objectBoundingBox">
      <stop offset="0" stop-color="#ff95a7"/>
      <stop offset="1" stop-color="#ff4060"/>
    </linearGradient>
  </defs>
  <g id="组_4506" data-name="组 4506" transform="translate(-61 -663)">
    <circle id="椭圆_32" data-name="椭圆 32" cx="40" cy="40" r="40" transform="translate(61 663)" opacity="0.2" fill="url(#linear-gradient)"/>
    <g id="meituan_1_" data-name="meituan(1)" transform="translate(12.629 527.59)">
      <path id="路径_8549" data-name="路径 8549" d="M116.923,171.034c0-3.718-3.969-4.723-6.057-5.431s-12.4-4.522-12.4-4.522-7.052-11.5-13.383-7.176c-1.535.972-1.284,4.481.845,5.956-2.946-.534-7.806.566-7.554,3.353s4.106,4.23,10.939,3.07c1.192-.251,2.851.626.845,2.32-1.065.753-5.7,2.037-15.859.219-7.227-1.293-11.467-2.269-13.313-2.724a31.775,31.775,0,0,0,12.554,31.079,34.771,34.771,0,0,0,4.831-1.84c4.262-2.005,3.01-4.074,2.005-4.8s-3.01-3.572,2.6-6.925a53.606,53.606,0,0,1,20.9-7.4c2.673-.375,5.892-.416,7.437-.5s5.606-.966,5.606-4.685Zm-18.344-2.946a2.028,2.028,0,1,1,2.028-2.028A2.027,2.027,0,0,1,98.579,168.088Z" transform="translate(0 -0.049)" fill="url(#linear-gradient)"/>
      <path id="路径_8550" data-name="路径 8550" d="M98.465,161.028s-7.052-11.5-13.383-7.176c-1.535.973-1.284,4.481.845,5.956-2.946-.534-7.805.566-7.554,3.353s4.106,4.23,10.939,3.07c1.192-.251,2.851.626.845,2.32-1.065.753-5.7,2.037-15.859.219-7.227-1.293-11.467-2.269-13.313-2.724a31.959,31.959,0,0,0-.467,5.441,31.608,31.608,0,0,0,6.693,19.495,30.033,30.033,0,0,0,11.54,2.295c.785,0,1.564-.038,2.333-.1a2.012,2.012,0,0,0-.709-2.689c-1-.721-3.01-3.572,2.6-6.925a53.606,53.606,0,0,1,20.9-7.4c.693-.1,1.421-.172,2.145-.232a29.921,29.921,0,0,0,2.794-11.108c-3.69-1.335-10.354-3.8-10.354-3.8Zm.114,7.011a2.028,2.028,0,1,1,2.028-2.028A2.027,2.027,0,0,1,98.579,168.039Z" transform="translate(0 -0.001)" fill="url(#linear-gradient)"/>
      <path id="路径_8551" data-name="路径 8551" d="M85.081,153.851c-1.535.973-1.284,4.481.845,5.956-2.946-.534-7.805.566-7.554,3.353s4.106,4.23,10.939,3.07c1.192-.251,2.851.626.845,2.32-1.065.753-5.7,2.037-15.859.219-7.227-1.294-11.467-2.269-13.313-2.724a31.851,31.851,0,0,0,1.109,15.331,30.116,30.116,0,0,0,34.756-14.3A2.023,2.023,0,0,1,98.337,164c.359-.868.683-1.754.963-2.66l-.839-.311s-7.049-11.5-13.38-7.176Z" fill="url(#linear-gradient)"/>
      <path id="路径_8552" data-name="路径 8552" d="M74.35,168.785c-7.227-1.294-11.467-2.269-13.313-2.724a31.959,31.959,0,0,0-.467,5.441c0,.111,0,.219.006.331.8.064,1.6.1,2.412.1a29.963,29.963,0,0,0,12.89-2.9c-.493-.079-1-.162-1.529-.257Zm11.629-8.962c-2.946-.534-7.805.566-7.554,3.353a3.432,3.432,0,0,0,2.5,2.841,30.217,30.217,0,0,0,9.843-12.528,5.518,5.518,0,0,0-5.632.378c-1.538.972-1.287,4.481.845,5.956Z" transform="translate(-0.049 -0.016)" fill="url(#linear-gradient)"/>
    </g>
  </g>
</svg>
