<svg xmlns="http://www.w3.org/2000/svg" xmlns:xlink="http://www.w3.org/1999/xlink" width="80" height="80" viewBox="0 0 80 80">
  <defs>
    <linearGradient id="linear-gradient" x1="0.5" x2="0.5" y2="1" gradientUnits="objectBoundingBox">
      <stop offset="0" stop-color="#ff95a7"/>
      <stop offset="1" stop-color="#ff4060"/>
    </linearGradient>
  </defs>
  <g id="组_4503" data-name="组 4503" transform="translate(-335 -494)">
    <circle id="椭圆_38" data-name="椭圆 38" cx="40" cy="40" r="40" transform="translate(335 494)" opacity="0.2" fill="url(#linear-gradient)"/>
    <path id="路径_8448" data-name="路径 8448" d="M10.38,58.322A11.779,11.779,0,0,1,12.063,57.1V74.5c-2.6-1.83-5.033-3.817-7.628-5.651-1.526-1.069-2.9-2.134-4.425-3.2,3.507-2.438,6.873-4.886,10.38-7.324ZM6.873,62.442c0,.461-.157.765-.157,1.222-.157.461.461,1.069,0,1.526-.3.765-.608,1.374-.912,1.987a.646.646,0,0,0,0,.765c.157.3.608.157.912.157a1.572,1.572,0,0,0,.765.3c.3,0,.461-.157.765-.157s.608.157.765,0c.157,0,.3-.157.608-.3h.76c.3-.157.3-.608.157-.912a6.686,6.686,0,0,1-1.222-1.683c-.461-.608.3-1.374,0-1.987-.157-.157-.157-.608-.157-.912h-.3a1.555,1.555,0,0,1-.765.912,1.555,1.555,0,0,1-.912-.765c0-.157-.157-.157-.3-.157Zm6.1-5.337c1.526,1.069,3.056,2.134,4.729,3.2L25.49,65.8a3.29,3.29,0,0,0-.765.608c-3.817,2.6-7.628,5.347-11.6,7.942C12.976,68.7,12.976,62.9,12.976,57.105ZM14.2,63.669a6.54,6.54,0,0,0,.608,1.069c.157,0,.3-.157.461-.157v3.665a18.67,18.67,0,0,0,4.121,0,29.467,29.467,0,0,0,0-3.665c.157,0,.3.157.461.157a3.3,3.3,0,0,0,.765-1.222c-.765-.157-1.526-.608-2.291-.765a1.147,1.147,0,0,1-1.069.765c-.461,0-.765-.461-.912-.765a9.029,9.029,0,0,0-2.134.912l-.01.005Zm12.21,2.291c4.126-3.056,8.4-5.956,12.519-8.855V74.359c-4.121-2.757-8.394-5.657-12.514-8.4Zm6.711-3.513a3.921,3.921,0,0,0,0,2.291c.3.765,1.069,1.222,1.526,1.83.3.3.157.765.157,1.069a4.589,4.589,0,0,0-1.222.608h2.752c-.461-.157-.765-.461-1.222-.608,0-.3-.157-.912.157-1.069a4.5,4.5,0,0,0,1.526-1.83,3.906,3.906,0,0,0-.157-2.291Zm6.574-5.342L42.9,59.4c2.6,1.83,5.033,3.507,7.628,5.347l1.374.912c-4.121,2.9-8.089,5.8-12.21,8.855V57.105Zm2.291,4.729a1.722,1.722,0,0,0,1.069,1.222h.912c-.157-.3-.157-.765-.461-.912C43.047,61.677,42.434,61.834,41.983,61.834Zm2.438.461a3.455,3.455,0,0,0-.461.765c.3,0,.765,0,.912-.157a3.273,3.273,0,0,0,.461-.765A1.892,1.892,0,0,0,44.421,62.3Zm-.912,1.069A2.6,2.6,0,0,0,41.36,66.34c.005.025.01.056.015.081a2.541,2.541,0,0,0,2.742,2.134,3.017,3.017,0,0,0,1.83-.912,2.963,2.963,0,0,0,.461-2.752,2.877,2.877,0,0,0-2.9-1.526Zm-3.36,11.906c3.969-2.9,7.785-5.651,11.754-8.551V83.974c-3.969-2.9-7.785-5.657-11.754-8.556,0,0-.157-.157,0-.157Zm6.26-1.683a2.934,2.934,0,0,0-2.291,1.683c-.157.608.461.912.765,1.374a3.392,3.392,0,0,0,1.683.765,10.762,10.762,0,0,0,1.374.912A3.435,3.435,0,0,0,48.1,77.1a13.286,13.286,0,0,0,1.526-1.069c.461.157.765.608,1.069.765.157,0,.461,0,.461-.157a2.819,2.819,0,0,0-.3-1.069,2.212,2.212,0,0,0,.3-1.069c0-.3-.3-.461-.608-.3a1.856,1.856,0,0,0-.765.765c-.608-.3-1.069-.765-1.683-1.069V72.671c-.765,0-1.222.608-1.683.912l-.005.005ZM0,66.872c3.969,2.9,7.785,5.651,11.754,8.551.157,0,0,.157,0,.157C7.785,78.322,3.969,81.226,0,83.969Zm3.507,5.956a3.273,3.273,0,0,1-.461.765.794.794,0,0,1-.608.3,1.644,1.644,0,0,0-.608,1.369,2.608,2.608,0,0,0,0,1.526.851.851,0,0,0,.912.765H6.25a1.155,1.155,0,0,0,.765-.3c.3-.3.157-.912.157-1.374a6.346,6.346,0,0,0-.461-1.83,10.189,10.189,0,0,1-.912-.608,1.51,1.51,0,0,0-1.069-1.069A2.008,2.008,0,0,0,3.507,72.828Zm17.71-1.069a18.879,18.879,0,0,0,1.222-2.438,15.421,15.421,0,0,1,1.069,2.291c.3,0,.608.157,1.069.157v.907c.461-.157.912-.157,1.526-.3-.3-1.069-.765-2.134-1.069-3.056,1.069.461,1.987.765,2.9,1.222-.3.608-.461,1.374-.765,2.134.461-.157.912-.157,1.222-.3.157,0,.157-.157.3-.3a20.609,20.609,0,0,0,1.069-2.752c.765.461,1.374,1.069,2.134,1.526l-.461.461c-.461.461-1.069.765-1.526,1.222H31.9c.157.461.3,1.069.461,1.526H31.146c-.157.608-.3,1.222-.461,1.987a6.967,6.967,0,0,1,1.683.461,4.481,4.481,0,0,1,.608,1.526c-.608.157-1.374.157-1.987.3l-.461,3.2a4.683,4.683,0,0,1-1.069.765c-.3-1.374-.461-2.752-.765-4.121a4.183,4.183,0,0,1-1.374-.157c-.3,1.069-.461,2.291-.765,3.36-.3.461-.765.461-1.222.765a33.479,33.479,0,0,0-.157-3.969,1.932,1.932,0,0,1-.912-.157c-.157-.461-.3-.765-.461-1.222-.608.608-.461,1.526-.608,2.291-.157,1.069-.3,2.134-.461,3.056a25.274,25.274,0,0,1-2.438-1.83c.461-.157,1.069-.3,1.526-.461-.157-.765-.157-1.526-.3-2.291-.3.157-.608.461-.912.608-.3-.765-.461-1.683-.765-2.438a5.6,5.6,0,0,0,1.683-.3c0-.608-.157-1.069-.157-1.683-.157,0-.3-.157-.461-.157a12.905,12.905,0,0,1-.912-1.526,2.918,2.918,0,0,0,1.222-.3l.005.005ZM23.2,75.575h1.526l-.461.912,1.374-.461c-.157-.461-.157-1.069-.3-1.526-.3-.157-.608-.157-.912-.3-.3-.3-.3-.608-.461-.912-.608.461-.608,1.374-.765,2.291Zm4.425-1.222c-.157.608-.157,1.222-.3,1.83.608-.157,1.069-.157,1.683-.3,0-.608-.157-1.222-.157-1.683a3.435,3.435,0,0,0-1.222.157ZM4.268,72.828c.461-.157.912.3,1.069.765H3.507c.3-.3.461-.608.765-.765Zm22.753,12.21,11.906-8.7v17.4l-3.665-2.752C32.51,89,29.768,86.868,27.016,85.033ZM34.2,81.531c-.157.3-.157.765-.3,1.069.3-.157.608-.157.912-.3a1.9,1.9,0,0,1,1.526.3c-.157-.3-.157-.765-.3-1.069Zm.3,1.374a2.153,2.153,0,0,0-1.374,1.222,2.044,2.044,0,0,0,.912,2.291,1.88,1.88,0,0,0,2.291-.3,1.809,1.809,0,0,0,.223-2.549,1.779,1.779,0,0,0-.684-.507c-.461-.3-.912-.157-1.374-.157l.005.005Zm-.608,3.969c.157.3.157.765.3,1.069H35.88a9.872,9.872,0,0,0,.3-1.069A2.41,2.41,0,0,1,33.894,86.873Zm5.8-10.685c4.121,2.894,8.089,5.646,12.21,8.546L45.49,89.316c-1.83,1.374-3.817,2.752-5.651,4.121-.152-5.651-.152-11.455-.152-17.253l.005.005Zm3.969,4.886V82.3h.456c.157-.3,0-.461,0-.765.3-.461-.3-.3-.461-.461Zm-1.678.157V82.3c.157,0,.3.157.461.157-.157-.461.3-1.222-.461-1.222Zm3.507,0c-.157.3,0,.608,0,.912,0,.157.461.157.461,0,.157-.3,0-.608,0-.912ZM41.522,82.9v4.425c0,.157.3.3.461.3H45.49c.3,0,.608.157.765-.157a1.954,1.954,0,0,0,.157-.912c.3-.157.461-.157.765-.3a1.151,1.151,0,0,0,.3-1.526,2.091,2.091,0,0,0-1.222-.765V82.9H41.522ZM0,84.734c3.969-2.752,7.942-5.651,12.063-8.394V93.589c-2.438-1.683-4.729-3.507-7.177-5.347C3.2,87.025,1.526,85.955,0,84.734Zm10.076-2.9c-.3.461-.765.765-.912,1.222a17.665,17.665,0,0,1-1.222,2.438c-.912.3-2.134.3-2.9,1.222a3.519,3.519,0,0,0,3.056.461c.608-.157.765-.765.912-1.222a2.457,2.457,0,0,1,.765-1.526c.157-.157.3.157.3.3v2.6h.3a6.26,6.26,0,0,1,.3-2.9,2.535,2.535,0,0,0,.3-1.526A2.119,2.119,0,0,0,10.076,81.835Zm2.9-5.494c2.438,1.683,4.729,3.36,7.02,5.19,1.526,1.222,3.2,2.291,4.729,3.507-3.964,2.9-7.932,5.8-11.749,8.7Zm3.36,5.651c-.3.157-.3.461-.608.608a3.339,3.339,0,0,0-1.222.157c-.157,0-.3.3-.3.461v3.507c0,.3.461.3.608.3h5.033c.3,0,.3-.3.3-.608V82.9a2.29,2.29,0,0,0-1.374-.3,1.509,1.509,0,0,0-.765-.608l-1.673.005Zm-2.9,12.357c4.121-2.9,8.089-5.8,12.21-8.551v9.159c.157,2.752,0,5.494,0,8.089-2.9-1.987-5.651-4.121-8.551-6.1-1.222-.912-2.6-1.83-3.665-2.6h.005Zm7.628-3.36h.608c-.157-.157-.157-.3-.3-.3Zm-2.134,1.374a6.721,6.721,0,0,0-.912,1.83c.157,0,.461-.157.608-.157.461,0,.912.157,1.222,0a1.311,1.311,0,0,1,1.069,0,12.823,12.823,0,0,1-.157,2.453c0,.3-.461.3-.608.3l-.461-.912c-.157.157-.3.157-.3.3a1.145,1.145,0,0,0,.765,1.222,1.093,1.093,0,0,0,1.363-.72l.015-.046v-2.6A2.138,2.138,0,0,1,22.9,94.2a3.161,3.161,0,0,1,1.683,0,3.433,3.433,0,0,0-.765-1.683,2.721,2.721,0,0,0-1.069-.765A2.738,2.738,0,0,0,18.931,92.362ZM26.412,85.8c4.121,2.9,8.089,5.651,12.21,8.551-3.969,2.9-8.089,5.956-12.063,8.855-.152-5.956-.152-11.754-.152-17.4Zm3.969,4.886c-.157.157-.157.461-.461.461-.461.3-.912.765-1.374,1.069a.927.927,0,0,0,.608.157h3.36c-.3-.461-.765-.608-1.069-.912-.461-.3-.765-.608-1.069-.765l.005-.01Zm-1.835,2.286v3.2c0,.157,0,.461.3.461h3.507a4.34,4.34,0,0,0,.157-1.374V92.975c0-.157-.3-.157-.461-.157A24.59,24.59,0,0,0,28.546,92.975Z" transform="translate(349.049 453.82)" fill="url(#linear-gradient)"/>
  </g>
</svg>
