<svg xmlns="http://www.w3.org/2000/svg" xmlns:xlink="http://www.w3.org/1999/xlink" width="80" height="80" viewBox="0 0 80 80">
  <defs>
    <linearGradient id="linear-gradient" x1="0.5" x2="0.5" y2="1" gradientUnits="objectBoundingBox">
      <stop offset="0" stop-color="#ccb1fd"/>
      <stop offset="1" stop-color="#8e60ff"/>
    </linearGradient>
  </defs>
  <g id="组_4500" data-name="组 4500" transform="translate(-610 -325)">
    <circle id="椭圆_36" data-name="椭圆 36" cx="40" cy="40" r="40" transform="translate(610 325)" opacity="0.2" fill="url(#linear-gradient)"/>
    <path id="减去_15" data-name="减去 15" d="M-15792.223-2583h-28.327a5.359,5.359,0,0,1-3.972-1.724,5.344,5.344,0,0,1-1.466-4.079l1.771-27.1a5.455,5.455,0,0,1,5.438-5.092h24.8a5.455,5.455,0,0,1,5.438,5.092l1.76,27.1a5.4,5.4,0,0,1-1.466,4.075A5.407,5.407,0,0,1-15792.223-2583Zm-29.129-16.516a.979.979,0,0,0-.981.938l-.028.576a.99.99,0,0,0,.938,1.037h.052a.989.989,0,0,0,.985-.937l.027-.576a.981.981,0,0,0-.252-.711.989.989,0,0,0-.689-.326Zm.521-10.084a.99.99,0,0,0-.99.939l-.345,6.8a.975.975,0,0,0,.256.712.99.99,0,0,0,.685.325h.052a.987.987,0,0,0,.985-.937l.346-6.8a1,1,0,0,0-.937-1.037Zm3.7-7.339a2.35,2.35,0,0,0-2.348,2.347,2.329,2.329,0,0,0,1.827,2.292,9.868,9.868,0,0,0,2.963,4.079,12.96,12.96,0,0,0,8.317,2.884,12.955,12.955,0,0,0,8.316-2.884,9.9,9.9,0,0,0,2.963-4.079,2.364,2.364,0,0,0,1.808-2.292,2.352,2.352,0,0,0-2.352-2.347,2.35,2.35,0,0,0-2.348,2.347,2.31,2.31,0,0,0,.93,1.867c-1.388,3.241-5.138,5.417-9.33,5.417s-7.937-2.177-9.325-5.417a2.339,2.339,0,0,0,.925-1.867A2.35,2.35,0,0,0-15817.13-2616.94Z" transform="translate(16456.387 2967.001)" fill="url(#linear-gradient)"/>
  </g>
</svg>
