<svg xmlns="http://www.w3.org/2000/svg" xmlns:xlink="http://www.w3.org/1999/xlink" width="80" height="80" viewBox="0 0 80 80">
  <defs>
    <linearGradient id="linear-gradient" x1="0.5" x2="0.5" y2="1" gradientUnits="objectBoundingBox">
      <stop offset="0" stop-color="#ccb1fd"/>
      <stop offset="1" stop-color="#8e60ff"/>
    </linearGradient>
  </defs>
  <g id="组_4520" data-name="组 4520" transform="translate(-610 -1001)">
    <circle id="椭圆_36" data-name="椭圆 36" cx="40" cy="40" r="40" transform="translate(610 1001)" opacity="0.2" fill="url(#linear-gradient)"/>
    <path id="路径_8561" data-name="路径 8561" d="M-12.826-15.752a.844.844,0,0,1-.616-.264.844.844,0,0,1-.264-.616.8.8,0,0,1,.264-.616.844.844,0,0,1,.616-.264H-2.2a.8.8,0,0,1,.616.264.8.8,0,0,1,.264.616.844.844,0,0,1-.264.616.8.8,0,0,1-.616.264Zm7.92,11.22a.778.778,0,0,1,.88.88.844.844,0,0,1-.264.616.8.8,0,0,1-.616.264h-1.76v.682a.844.844,0,0,1-.264.616.8.8,0,0,1-.616.264.844.844,0,0,1-.616-.264.844.844,0,0,1-.264-.616v-.682h-1.76a.778.778,0,0,1-.88-.88.778.778,0,0,1,.88-.88h1.76v-.7a.8.8,0,0,1,.264-.616.844.844,0,0,1,.616-.264.8.8,0,0,1,.616.264.8.8,0,0,1,.264.616v.7Zm.132-10.3a2.433,2.433,0,0,1,1.782.748A2.433,2.433,0,0,1-2.244-12.3v.4a2.433,2.433,0,0,1-.748,1.782,2.433,2.433,0,0,1-1.782.748h-5.588a2.433,2.433,0,0,1-1.782-.748,2.433,2.433,0,0,1-.748-1.782v-.4a2.433,2.433,0,0,1,.748-1.782,2.433,2.433,0,0,1,1.782-.748ZM-4-12.3a.681.681,0,0,0-.77-.77h-5.588a.681.681,0,0,0-.77.77v.4a.681.681,0,0,0,.77.77h5.588A.681.681,0,0,0-4-11.9Zm-.748,3.85a3.128,3.128,0,0,1,2.266.924,3.128,3.128,0,0,1,.924,2.266v3.19A3.055,3.055,0,0,1-2.486.176a3.091,3.091,0,0,1-2.266.946h-5.61A3.02,3.02,0,0,1-12.606.176a3.02,3.02,0,0,1-.946-2.244v-3.19a3.091,3.091,0,0,1,.946-2.266,3.055,3.055,0,0,1,2.244-.924Zm1.43,3.19A1.427,1.427,0,0,0-3.74-6.27a1.378,1.378,0,0,0-1.012-.418h-5.61a1.378,1.378,0,0,0-1.012.418,1.427,1.427,0,0,0-.418,1.012v3.19a1.378,1.378,0,0,0,.418,1.012,1.378,1.378,0,0,0,1.012.418h5.61A1.378,1.378,0,0,0-3.74-1.056a1.378,1.378,0,0,0,.418-1.012ZM-16.588-8.866V.286a.778.778,0,0,1-.88.88A.844.844,0,0,1-18.084.9a.844.844,0,0,1-.264-.616V-6.336l-.946,1.364a.841.841,0,0,1-.726.374.848.848,0,0,1-.506-.176.828.828,0,0,1-.352-.55.832.832,0,0,1,.154-.66l4.136-5.94h-3.344a.844.844,0,0,1-.616-.264.844.844,0,0,1-.264-.616.8.8,0,0,1,.264-.616.844.844,0,0,1,.616-.264H-16.1a1.405,1.405,0,0,1,1.342.814,1.411,1.411,0,0,1-.11,1.562Zm-2.53-7.414a.907.907,0,0,1-.286-.66.9.9,0,0,1,.264-.66.931.931,0,0,1,.682-.286.944.944,0,0,1,.66.264l1.694,1.694a.834.834,0,0,1,.022,1.32.931.931,0,0,1-.682.286.907.907,0,0,1-.66-.286Zm5.17,10.6a.908.908,0,0,1-.154.7.836.836,0,0,1-.7.352.8.8,0,0,1-.858-.7l-.528-2.53A.813.813,0,0,1-15.51-8.91a.818.818,0,0,1,1.056.7ZM19.36-18.15a.8.8,0,0,1,.616.264.8.8,0,0,1,.264.616V-1.65A2.643,2.643,0,0,1,19.47.22,2.546,2.546,0,0,1,17.6.99H14.762a.844.844,0,0,1-.616-.264A.844.844,0,0,1,13.882.11a.8.8,0,0,1,.264-.616.844.844,0,0,1,.616-.264H17.6a.937.937,0,0,0,.616-.242.869.869,0,0,0,.264-.638V-17.27a.8.8,0,0,1,.264-.616A.844.844,0,0,1,19.36-18.15ZM15.048-2.442a.844.844,0,0,1-.616-.264.844.844,0,0,1-.264-.616V-16.61a.8.8,0,0,1,.264-.616.844.844,0,0,1,.616-.264.8.8,0,0,1,.616.264.8.8,0,0,1,.264.616V-3.322a.844.844,0,0,1-.264.616A.8.8,0,0,1,15.048-2.442ZM2.882-15.8a.844.844,0,0,1-.616-.264A.844.844,0,0,1,2-16.676a.778.778,0,0,1,.88-.88h8.536a.778.778,0,0,1,.88.88.844.844,0,0,1-.264.616.8.8,0,0,1-.616.264ZM2.574-10.01a.844.844,0,0,1-.616-.264.844.844,0,0,1-.264-.616.8.8,0,0,1,.264-.616.844.844,0,0,1,.616-.264h3.74V-14.3a.8.8,0,0,1,.264-.616.844.844,0,0,1,.616-.264.8.8,0,0,1,.616.264.8.8,0,0,1,.264.616v2.53h3.982a.8.8,0,0,1,.616.264.8.8,0,0,1,.264.616.844.844,0,0,1-.264.616.8.8,0,0,1-.616.264ZM12.826-2.728a.869.869,0,0,1,.154.682.807.807,0,0,1-.374.55.806.806,0,0,1-.66.154.884.884,0,0,1-.572-.374l-3.3-4.8v7A.844.844,0,0,1,7.81,1.1a.8.8,0,0,1-.616.264A.844.844,0,0,1,6.578,1.1.844.844,0,0,1,6.314.484V-6.38L3.19-1.606a.819.819,0,0,1-1.232.264.791.791,0,0,1-.242-1.232L5.676-8.6a1.691,1.691,0,0,1,1.518-.836,1.65,1.65,0,0,1,1.518.792ZM-16.3,7.534a.9.9,0,0,1,.33.594.921.921,0,0,1-.2.638.707.707,0,0,1-.572.308.965.965,0,0,1-.66-.154l-2.662-2.112a.9.9,0,0,1-.33-.594.921.921,0,0,1,.2-.638.923.923,0,0,1,.594-.352.8.8,0,0,1,.638.2Zm-.4,4.884a.79.79,0,0,1,.154,1.254.855.855,0,0,1-.572.308.874.874,0,0,1-.66-.176l-2.662-2.112a.842.842,0,0,1-.33-.594.736.736,0,0,1,.176-.638.785.785,0,0,1,1.232-.154Zm-.33,3.08a.8.8,0,0,1,.55,1.122l-2.376,6.82a.826.826,0,0,1-.836.594.836.836,0,0,1-.7-.352.994.994,0,0,1-.132-.814l2.376-6.82a.8.8,0,0,1,.44-.506A.915.915,0,0,1-17.028,15.5ZM-2.09,11.714a.778.778,0,0,1,.88.88.844.844,0,0,1-.264.616.8.8,0,0,1-.616.264H-8.25a.844.844,0,0,1-.616-.264.844.844,0,0,1-.264-.616V10.658h-4a.844.844,0,0,1-.616-.264.844.844,0,0,1-.264-.616.8.8,0,0,1,.264-.616.844.844,0,0,1,.616-.264h4V7.842h-4.862a.844.844,0,0,1-.616-.264.844.844,0,0,1-.264-.616.8.8,0,0,1,.264-.616.844.844,0,0,1,.616-.264H-9.13V5.664a.8.8,0,0,1,.264-.616.844.844,0,0,1,.616-.264.8.8,0,0,1,.616.264.8.8,0,0,1,.264.616v.418h4.8a.778.778,0,0,1,.88.88.778.778,0,0,1-.88.88h-4.8V8.9H-3.3a.8.8,0,0,1,.616.264.8.8,0,0,1,.264.616.844.844,0,0,1-.264.616.8.8,0,0,1-.616.264H-7.37v1.056Zm-8.8,7.3a.844.844,0,0,1-.616-.264.844.844,0,0,1-.264-.616.778.778,0,0,1,.88-.88h5.258a.778.778,0,0,1,.88.88.778.778,0,0,1-.88.88Zm6.138,1.826a.778.778,0,0,1-.88.88H-10.89a.844.844,0,0,1-.616-.264.844.844,0,0,1-.264-.616.8.8,0,0,1,.264-.616.844.844,0,0,1,.616-.264h5.258A.778.778,0,0,1-4.752,20.844Zm-.044-6.4a2.546,2.546,0,0,1,1.87.77,2.546,2.546,0,0,1,.77,1.87v4.554a2.546,2.546,0,0,1-.77,1.87,2.546,2.546,0,0,1-1.87.77H-6.864a.778.778,0,0,1-.88-.88.8.8,0,0,1,.264-.616.844.844,0,0,1,.616-.264H-4.8a.8.8,0,0,0,.616-.264.844.844,0,0,0,.264-.616V17.082a.8.8,0,0,0-.264-.616A.8.8,0,0,0-4.8,16.2h-6.93a.844.844,0,0,0-.616.264.8.8,0,0,0-.264.616v6.446a.778.778,0,0,1-.88.88.844.844,0,0,1-.616-.264.844.844,0,0,1-.264-.616V17.082a2.546,2.546,0,0,1,.77-1.87,2.594,2.594,0,0,1,1.87-.77Zm-4.73-1.848a.844.844,0,0,1-.264.616.8.8,0,0,1-.616.264h-4.2a.844.844,0,0,1-.616-.264.844.844,0,0,1-.264-.616.778.778,0,0,1,.88-.88h4.2A.778.778,0,0,1-9.526,12.594Zm29.37,6.6a.9.9,0,0,1,.88.88.844.844,0,0,1-.264.616.8.8,0,0,1-.616.264H11.88v2.64a.844.844,0,0,1-.264.616.8.8,0,0,1-.616.264.9.9,0,0,1-.88-.88v-2.64H2.134a.844.844,0,0,1-.616-.264.844.844,0,0,1-.264-.616.8.8,0,0,1,.264-.616.844.844,0,0,1,.616-.264H10.12V13.518H6.93a.9.9,0,0,1-.88-.88.8.8,0,0,1,.264-.616.844.844,0,0,1,.616-.264h3.19V8.59a.8.8,0,0,1,.264-.616A.844.844,0,0,1,11,7.71h2.486l1.452-2.42a.791.791,0,0,1,1.21-.308.809.809,0,0,1,.4.528.908.908,0,0,1-.088.682L15.532,7.71h.352a2.644,2.644,0,0,1,1.936.814,2.6,2.6,0,0,1,.814,1.936v4.356a2.6,2.6,0,0,1-.814,1.936,2.644,2.644,0,0,1-1.936.814H13.442a.9.9,0,0,1-.88-.88.8.8,0,0,1,.264-.616.844.844,0,0,1,.616-.264h2.442a1.006,1.006,0,0,0,.7-.286.957.957,0,0,0,.286-.7V10.46a.957.957,0,0,0-.286-.7,1.006,1.006,0,0,0-.7-.286h-4v2.288H15a.9.9,0,0,1,.88.88.844.844,0,0,1-.264.616.8.8,0,0,1-.616.264H11.88v5.676ZM5.83,17.566a2.6,2.6,0,0,1-1.936-.814,2.6,2.6,0,0,1-.814-1.936V10.46a2.6,2.6,0,0,1,.814-1.936A2.6,2.6,0,0,1,5.83,7.71h.616l-.9-1.518a.851.851,0,0,1-.11-.682.809.809,0,0,1,.4-.528.908.908,0,0,1,.682-.088.809.809,0,0,1,.528.4Q8.492,7.732,8.492,7.71h.33a.9.9,0,0,1,.88.88.844.844,0,0,1-.264.616.8.8,0,0,1-.616.264H5.83a.977.977,0,0,0-.99.99v4.356a.977.977,0,0,0,.99.99H8.69a.9.9,0,0,1,.88.88.844.844,0,0,1-.264.616.8.8,0,0,1-.616.264Z" transform="translate(649.893 1038.15)" fill="url(#linear-gradient)"/>
  </g>
</svg>
