<?xml version="1.0" standalone="no"?><!DOCTYPE svg PUBLIC "-//W3C//DTD SVG 1.1//EN"
    "http://www.w3.org/Graphics/SVG/1.1/DTD/svg11.dtd">
<svg t="1669217064291" class="icon" viewBox="0 0 1024 1024" version="1.1"
    xmlns="http://www.w3.org/2000/svg" p-id="7953" xmlns:xlink="http://www.w3.org/1999/xlink"
    width="150" height="150">
    <path
        d="M962.4064 365.1584c-117.6064 129.0752-266.4448 197.3248-430.3872 197.3248-205.6192 0-341.6576-78.8992-419.6352-145.1008a576.1024 576.1024 0 0 1-53.9136-52.1216v446.1568c0 49.664 40.2432 89.9072 89.9072 89.9072h730.624c49.664 0 89.9072-40.2432 89.9072-89.9072V357.9392c-2.1504 2.4064-4.3008 4.8128-6.5024 7.2192z"
        fill="#FF623E" p-id="7954"></path>
    <path
        d="M879.0016 122.88H148.3776c-49.664 0-89.9072 40.2432-89.9072 89.9072V285.696c17.9712 25.344 46.7456 60.416 88.0128 95.1296 103.8336 87.3984 233.5232 131.6864 385.4848 131.6864 218.0096 0 358.912-129.9968 436.8896-234.2912V212.7872c0.0512-49.664-40.192-89.9072-89.856-89.9072z m-365.312 293.9392c-26.0608 0-47.1552-21.1456-47.1552-47.1552 0-26.0608 21.1456-47.1552 47.1552-47.1552s47.1552 21.1456 47.1552 47.1552c0.0512 26.0096-21.0944 47.1552-47.1552 47.1552z"
        fill="#FF623E" p-id="7955"></path>
</svg>