<svg xmlns="http://www.w3.org/2000/svg" xmlns:xlink="http://www.w3.org/1999/xlink" width="80" height="80" viewBox="0 0 80 80">
  <defs>
    <linearGradient id="linear-gradient" x1="0.5" x2="0.5" y2="1" gradientUnits="objectBoundingBox">
      <stop offset="0" stop-color="#ccb1fd"/>
      <stop offset="1" stop-color="#8e60ff"/>
    </linearGradient>
  </defs>
  <g id="组_4510" data-name="组 4510" transform="translate(-610 -663)">
    <circle id="椭圆_36" data-name="椭圆 36" cx="40" cy="40" r="40" transform="translate(610 663)" opacity="0.2" fill="url(#linear-gradient)"/>
    <path id="路径_8478" data-name="路径 8478" d="M110.435,150.85H84.051a1.126,1.126,0,1,1,0-2.252h26.384a1.126,1.126,0,1,1,0,2.252ZM104.1,129.9c-1.822-2.817-3.679-5.612-5.445-8.464a1.611,1.611,0,0,0-2.813-.006c-1.753,2.859-3.618,5.649-5.439,8.465-.094.145-.2.284-.307.437-.152-.119-.259-.2-.359-.282L83,124.326a1.5,1.5,0,0,0-1.819-.309,1.563,1.563,0,0,0-.662,1.728q1.672,9.491,3.339,18.982c.2,1.163.654,1.55,1.842,1.55h23.073c1.193,0,1.649-.388,1.85-1.545q1.658-9.543,3.322-19.086a1.4,1.4,0,0,0-.653-1.618,1.434,1.434,0,0,0-1.738.22c-.648.54-1.287,1.091-1.928,1.638l-5.224,4.455C104.281,130.162,104.184,130.032,104.1,129.9Zm12.721-8.82a2.288,2.288,0,1,0-2.286,2.295,2.274,2.274,0,0,0,2.286-2.295m-36.859-2.169a2.3,2.3,0,1,0,2.293,2.3A2.269,2.269,0,0,0,79.958,118.907Zm19.652-1.383a2.3,2.3,0,1,0-2.316,2.275A2.291,2.291,0,0,0,99.61,117.524Z" transform="translate(552.33 569.781)" fill="url(#linear-gradient)"/>
  </g>
</svg>
