<svg xmlns="http://www.w3.org/2000/svg" xmlns:xlink="http://www.w3.org/1999/xlink" width="80" height="80" viewBox="0 0 80 80">
  <defs>
    <linearGradient id="linear-gradient" x1="0.5" x2="0.5" y2="1" gradientUnits="objectBoundingBox">
      <stop offset="0" stop-color="#ffbaaf"/>
      <stop offset="1" stop-color="#fe6752"/>
    </linearGradient>
  </defs>
  <g id="组_4518" data-name="组 4518" transform="translate(-336 -1001)">
    <circle id="椭圆_33" data-name="椭圆 33" cx="40" cy="40" r="40" transform="translate(336 1001)" opacity="0.2" fill="url(#linear-gradient)"/>
    <g id="hongbao1" transform="translate(206.885 921.52)">
      <path id="路径_8455" data-name="路径 8455" d="M159.616,112.059a10.264,10.264,0,0,1,19.908-.087l7.52-4.529v-2.352a5.609,5.609,0,0,0-5.61-5.61h-23.71a5.609,5.609,0,0,0-5.61,5.61v2.68l7.5,4.287Z" transform="translate(-0.001 -0.001)" fill="url(#linear-gradient)"/>
      <path id="路径_8456" data-name="路径 8456" d="M179.688,358.272a10.262,10.262,0,0,1-20.207.052l-7.366-4.21v22.2a5.609,5.609,0,0,0,5.61,5.61h23.71a5.609,5.609,0,0,0,5.61-5.61V353.843Z" transform="translate(0 -241.987)" fill="url(#linear-gradient)"/>
      <path id="路径_8457" data-name="路径 8457" d="M411.583,256.406h-2.167v-1.28h2.167a1.622,1.622,0,1,0,0-3.243h-.914l1.517-2.362a1.621,1.621,0,0,0-2.728-1.751l-1.779,2.768-2-2.6a1.622,1.622,0,0,0-2.571,1.978l1.515,1.97H404a1.622,1.622,0,0,0,0,3.243h2.167v1.28H404a1.622,1.622,0,0,0,0,3.243h2.167v1.086a1.622,1.622,0,1,0,3.243,0v-1.086h2.167a1.624,1.624,0,0,0,0-3.248Z" transform="translate(-238.09 -140.366)" fill="url(#linear-gradient)"/>
      <path id="路径_8458" data-name="路径 8458" d="M187.044,353.843l-7.356,4.429a10.262,10.262,0,0,1-20.207.052l-7.366-4.21v22.2a5.609,5.609,0,0,0,5.61,5.61H160.3a29.956,29.956,0,0,0,26.746-23.446v-4.636Z" transform="translate(0 -241.987)" fill="url(#linear-gradient)"/>
      <path id="路径_8459" data-name="路径 8459" d="M157.726,99.48a5.609,5.609,0,0,0-5.61,5.61v2.68l7.5,4.287a10.258,10.258,0,0,1,18.451-3.3,29.949,29.949,0,0,0,1.472-9.274H157.726Z" transform="translate(-0.001 0)" fill="url(#linear-gradient)"/>
      <path id="路径_8460" data-name="路径 8460" d="M173.493,256.406h-2.167v-1.28h2.167a1.622,1.622,0,1,0,0-3.243h-.914l1.517-2.362a1.621,1.621,0,0,0-2.728-1.751l-1.779,2.768-2-2.6a1.622,1.622,0,0,0-2.571,1.978l1.515,1.97h-.623a1.622,1.622,0,1,0,0,3.243h2.167v1.28h-2.167a1.622,1.622,0,1,0,0,3.243h2.167v1.089a1.624,1.624,0,0,0,1.278,1.584q1.024-.9,1.963-1.891v-.78h.712a30.045,30.045,0,0,0,2.324-2.987A1.546,1.546,0,0,0,173.493,256.406Zm-7.119,8.228a10.276,10.276,0,0,1-6.893-7.931l-7.366-4.21v17.173a29.785,29.785,0,0,0,14.259-5.032Z" transform="translate(0 -140.366)" fill="url(#linear-gradient)"/>
      <path id="路径_8461" data-name="路径 8461" d="M170.068,99.481H157.725a5.609,5.609,0,0,0-5.61,5.61v2.68l7.5,4.287a10.275,10.275,0,0,1,8.029-7.62,29.67,29.67,0,0,0,2.426-4.957Zm-13.15,15.392-4.8-2.745v4.952a30.082,30.082,0,0,0,4.8-2.207Z" transform="translate(0 -0.001)" fill="url(#linear-gradient)"/>
    </g>
  </g>
</svg>
