<svg xmlns="http://www.w3.org/2000/svg" xmlns:xlink="http://www.w3.org/1999/xlink" width="80" height="80" viewBox="0 0 80 80">
  <defs>
    <linearGradient id="linear-gradient" x1="0.5" x2="0.5" y2="1" gradientUnits="objectBoundingBox">
      <stop offset="0" stop-color="#ff95a7"/>
      <stop offset="1" stop-color="#ff4060"/>
    </linearGradient>
  </defs>
  <g id="组_4513" data-name="组 4513" transform="translate(-336 -832)">
    <circle id="椭圆_38" data-name="椭圆 38" cx="40" cy="40" r="40" transform="translate(336 832)" opacity="0.2" fill="url(#linear-gradient)"/>
    <g id="组_4494" data-name="组 4494" transform="translate(288.011 688.351)">
      <path id="路径_8568" data-name="路径 8568" d="M68.708,353.145,66,357.332l5,3.115s3.326,1.713,1.732,4.929c-1.475,3.042-8.741,9.7-8.741,9.7l6.505,4.086c4.508-9.831,4.206-8.521,5.333-12.058,1.164-3.592,1.42-6.35-.55-8.356A41.051,41.051,0,0,0,68.708,353.145Z" transform="translate(0 -177.509)" fill="url(#linear-gradient)"/>
      <path id="路径_8569" data-name="路径 8569" d="M143.1,186.438a3.879,3.879,0,1,0-4.288-3.848A4.08,4.08,0,0,0,143.1,186.438Z" transform="translate(-70.84 -12.377)" fill="url(#linear-gradient)"/>
      <path id="路径_8570" data-name="路径 8570" d="M292.491,174.537s-1.42-11.068-25.472-4.215a29.49,29.49,0,0,0,1.521-2.969l-6-1.7s-2.428,7.971-6.753,11.682c0,0,4.2,2.437,4.151,2.364a38.8,38.8,0,0,0,3.2-3.628c.962-.431,1.887-.825,2.785-1.191a37.715,37.715,0,0,1-4.7,6.945l2.529,2.236s1.732-1.677,3.61-3.683H269.5v3.72h-8.374v2.969H269.5v7.119l-.321-.009c-.925-.046-2.355-.2-2.923-1.1-.678-1.1-.174-3.088-.147-4.325h-5.781l-.211.119s-2.126,9.556,6.111,9.346c7.7.211,12.113-2.172,14.238-3.812l.843,3.17,4.746-2.007-3.216-7.916-3.848,1.219.715,2.7a11.379,11.379,0,0,1-3.335,1.713v-6.221h8.164v-2.978h-8.164v-3.72h8.191V177.4H270a11.949,11.949,0,0,0,2.089-3.216l-2.547-.7c10.9-3.94,16.978-3.262,16.932,3.189v16.987s.641,5.827-5.992,5.415l-3.592-.779-.834,3.436s15.494,4.471,16.758-7.532S292.491,174.537,292.491,174.537Z" transform="translate(-181.581)" fill="url(#linear-gradient)"/>
    </g>
  </g>
</svg>
