<svg xmlns="http://www.w3.org/2000/svg" xmlns:xlink="http://www.w3.org/1999/xlink" width="80" height="80" viewBox="0 0 80 80">
  <defs>
    <linearGradient id="linear-gradient" x1="0.5" x2="0.5" y2="1" gradientUnits="objectBoundingBox">
      <stop offset="0" stop-color="#bcd7ff"/>
      <stop offset="1" stop-color="#4194fe"/>
    </linearGradient>
  </defs>
  <g id="组_4505" data-name="组 4505" transform="translate(-610 -494)">
    <circle id="椭圆_39" data-name="椭圆 39" cx="40" cy="40" r="40" transform="translate(610 494)" opacity="0.2" fill="url(#linear-gradient)"/>
    <path id="联合_8" data-name="联合 8" d="M-15795.923-2598.143c.325.087.623.171,1.053.286,1.1-.52,2.01-.492,2.621.167a2.836,2.836,0,0,1,.223,3.062c-.549.933-1.458,1.184-3.126.814v1.624l-.771.1Zm2.1.576c-1.04.024-1.338.409-1.338,1.728,0,1.469.107,1.62,1.147,1.6.949-.02,1.446-.6,1.458-1.7s-.394-1.633-1.23-1.633Zm-23.5,5.406a2.962,2.962,0,0,1-.06-.409c-.008-1.8,0-3.591,0-5.342.088-.083.143-.155.163-.147.774.318,1.5-.111,2.244-.139,1.263-.048,1.918.818,1.87,2.387a2.129,2.129,0,0,1-2.351,2.2c-.334-.028-.66-.119-1.085-.195v1.64Zm.774-3.718c0,1.509.088,1.64,1.108,1.64.977,0,1.5-.612,1.5-1.736,0-1.057-.421-1.593-1.234-1.593C-15816.227-2597.567-15816.553-2597.166-15816.553-2595.879Zm4.734,1.982c-.19-.079-.25-.485-.373-.747a18.842,18.842,0,0,0,2.315.334c.23.008.469-.377.707-.584a2.71,2.71,0,0,0-.671-.552,12.61,12.61,0,0,1-1.45-.381,1.46,1.46,0,0,1-.734-.9,1.49,1.49,0,0,1,.465-1.076,3.061,3.061,0,0,1,2.808-.163c.175.123.215.453.334.727a12.428,12.428,0,0,0-1.967-.282c-.281,0-.56.354-.842.548a3.1,3.1,0,0,0,.723.584,10.991,10.991,0,0,1,1.371.354,1.532,1.532,0,0,1,.767.957,1.4,1.4,0,0,1-.561,1.1,2.493,2.493,0,0,1-1.4.411A4.025,4.025,0,0,1-15811.818-2593.9Zm24.315-2.316a2.458,2.458,0,0,1,3.714-1.708c.187.135.2.508.361.961-1.128-.552-2.077-1.045-2.923-.032a1.958,1.958,0,0,0,.052,2.236c.865.917,1.775.445,2.665-.02.222.568.027.846-.509,1.021a3.453,3.453,0,0,1-1.066.179A2.243,2.243,0,0,1-15787.5-2596.213Zm4.6.338a2.1,2.1,0,0,1,2.212-2.331,2.077,2.077,0,0,1,2.276,2.26,2.112,2.112,0,0,1-2.2,2.347h-.046A2.113,2.113,0,0,1-15782.9-2595.875Zm2.232-1.688c-.886.008-1.391.6-1.395,1.652,0,1.021.528,1.656,1.391,1.668s1.418-.608,1.426-1.628c.008-1.086-.487-1.692-1.4-1.692Zm-21.146,1.692a2.113,2.113,0,0,1,2.217-2.335,2.13,2.13,0,0,1,2.3,2.256,2.15,2.15,0,0,1-2.225,2.351h-.045A2.128,2.128,0,0,1-15801.813-2595.871Zm.862-.056c-.008,1.044.5,1.676,1.378,1.688s1.406-.6,1.41-1.656c0-1.084-.473-1.664-1.374-1.672h-.019C-15800.449-2597.567-15800.943-2596.984-15800.951-2595.927Zm30.158,2.157c0-.866.008-1.732,0-2.594-.013-.925-.259-1.215-.985-1.2-.882.016-1.318.437-1.318,1.263,0,.771-.009,1.537-.017,2.3a.809.809,0,0,1-.067.2c-.611.214-.782-.028-.763-.6.024-.739,0-1.481-.012-2.224a.842.842,0,0,0-.989-.953c-.786.032-1.29.425-1.3,1.056-.012.9,0,1.791,0,2.737h-.834c0-1.315-.008-2.609.012-3.9,0-.143.167-.405.247-.4a4.469,4.469,0,0,1,.865.238,1.958,1.958,0,0,1,2.558.127,12.949,12.949,0,0,1,2.046-.473,1.212,1.212,0,0,1,1.358,1.247,24.007,24.007,0,0,1,.016,2.78c-.012.19-.365.361-.56.54Zm-48.909-.358c-.048-1.295-.027-2.59-.027-3.88.067-.06.139-.119.206-.179.2.163.576.318.584.489.048,1.291.023,2.586.023,3.88-.067.056-.139.115-.206.175C-15819.325-2593.806-15819.694-2593.96-15819.7-2594.127Zm-4.119.064c-.607-1.291-1.18-2.594-1.791-3.94.564-.2.886-.127,1.1.425.365.933.8,1.843,1.271,2.927.477-1.084.9-2,1.271-2.927.194-.492.48-.655,1.061-.417-.612,1.354-1.2,2.7-1.843,4.031a.511.511,0,0,1-.474.285A.669.669,0,0,1-15823.821-2594.064Zm16.745-.25c.021-1.668.024-3.34,0-5.012-.008-.556.2-.719.811-.544v2.045a11.6,11.6,0,0,1,1.831-.361,1.281,1.281,0,0,1,1.434,1.287c.06,1.021.012,2.053.012,3.126h-.8c0-.882.023-1.724-.008-2.566-.036-.953-.322-1.291-1.076-1.215-.934.1-1.482.361-1.387,1.319.079.786.016,1.585.016,2.419a1.483,1.483,0,0,1-.435.087C-15806.963-2593.731-15807.081-2593.905-15807.076-2594.314Zm16.912.548v-1.037h.938v1.037Zm-29.455-5.1c-.143-.139-.143-.421-.222-.7h.992c-.063.27-.056.552-.19.7a.439.439,0,0,1-.287.078A.464.464,0,0,1-15819.619-2598.862Zm36.962-2.9c-1.036-.008-1.474-.826-1-1.78.576-1.164,1.176-2.315,1.764-3.475.115-.222.207-.461.377-.842-.81,0-1.489,0-2.164,0-1.1,0-1.136-.04-.941-1.247h15.454c-.175.9-.628,1.239-1.724,1.243-2.359.012-4.723.087-7.078-.028a2.144,2.144,0,0,0-2.55,1.573,26.1,26.1,0,0,1-1.41,2.943h10.133c-.37-.791-.724-1.541-1.081-2.308,1.47-.358,1.609-.3,2.213.941.23.477.488.945.683,1.434a1.022,1.022,0,0,1-.984,1.541q-3.164.019-6.331.02Q-15779.976-2601.741-15782.657-2601.757Zm-36.128-.933c-.008-.929-.008-1.855-.008-2.784v-8.452c-.984,1.188-1.835,2.1-1.72,3.622.151,1.954.044,3.924.036,5.89a1.575,1.575,0,0,1-1.756,1.775c-1.239.02-2.479,0-3.769,0v-15.025h5.469v2.585a3.813,3.813,0,0,0,.453-.512c.727-1.295,1.461-2.582,2.156-3.9.592-1.12.842-1.259,2.312-.965-.4.933-.778,1.835-1.207,2.848h9.679c.04.973-.254,1.311-1.12,1.326-1.08.02-2.156,0-3.229,0v3.73c1.076,0,2.1.024,3.122-.008.56-.02.921.072.894.743s-.354.635-.9.588c-1-.083-2.006-.024-3.07-.024v3.162c1.08,0,2.133.032,3.181-.016.6-.024.83.215.807.771-.023.62-.4.7-.93.655-1-.079-2-.107-3.058-.155v3.722h4.289c.052.885-.246,1.3-1.021,1.307-3.237.032-6.475.032-9.711.052h-.011C-15818.541-2601.745-15818.78-2602.1-15818.785-2602.69Zm2.134-4.075c-.147,0-.413.207-.418.326-.031,1.1-.02,2.208-.02,3.3h3.853v-3.646l-1.608,0C-15815.455-2606.784-15816.053-2606.781-15816.651-2606.766Zm-7.57,2.657h1.993v-11.967h-1.993Zm7.554-7.118c-.143,0-.4.215-.4.342-.035.909-.02,1.823-.02,2.752h3.889c0-.933.02-1.823-.02-2.709a.616.616,0,0,0-.441-.385c-.485-.017-.973-.025-1.459-.025Q-15815.9-2611.251-15816.668-2611.226Zm-.369-5.036v3.674h3.841c0-1.132.016-2.161-.016-3.185-.008-.167-.227-.461-.357-.465-.641-.022-1.28-.027-1.922-.027C-15816-2616.265-15816.52-2616.262-15817.037-2616.262Zm12.189,13.762c.023-2.411.012-4.826.008-7.24,0-.389.052-.655.553-.647,2.335.044,4.666.056,7,.087a1.513,1.513,0,0,1,.333.1v2.177c0,1.486.009,2.971,0,4.456-.008,1.2-.56,1.78-1.739,1.792-.862,0-1.72,0-2.578,0-.945,0-1.891,0-2.831.008h-.032C-15804.665-2601.761-15804.852-2601.955-15804.848-2602.5Zm1.775-.619h4.35v-5.843h-4.35Zm7.793,1.323v-8.5h7.788v2.931c0,1.378.009,2.757,0,4.139-.008.838-.4,1.39-1.191,1.41-.97.023-1.942.03-2.923.03C-15792.812-2601.787-15794.033-2601.8-15795.279-2601.8Zm1.728-1.374h4.285v-5.767h-4.285Zm-9.052-8.6c.02-2.228.023-4.452.04-6.677,0-.048.043-.1.095-.2h12.683v2.713c0,.953.016,1.91,0,2.864-.017,1.032-.481,1.573-1.47,1.6-3.579.091-7.153.143-10.732.219h-.042C-15802.387-2611.253-15802.6-2611.354-15802.6-2611.77Zm1.752-1.4h9.377v-4.135h-9.377Zm27.6,1.883c-2.574-.016-5.147-.008-7.722-.008-1.259,0-1.259,0-1.076-1.4h9.978c-1.585-1.632-3.276-3.376-5.028-5.183a27.943,27.943,0,0,1-7.376,6.53,1.542,1.542,0,0,1,.544-2.165,31.5,31.5,0,0,0,5.489-5.4,1.788,1.788,0,0,1,3.066-.048,31.834,31.834,0,0,0,5.95,5.608c.762.532.238,1.279.357,1.922l-.175.131c-.676-.437-1.351-.87-2.09-1.346-.2,1.115-.944,1.362-1.9,1.362Zm-40.405-8.337a.921.921,0,0,1,.179-.771,3.67,3.67,0,0,1,.786-.6c.362.48.743.985,1.112,1.493.576.786.561.866-.25,1.422-.127.087-.267.163-.5.306A22.276,22.276,0,0,1-15813.661-2619.626Z" transform="translate(16448 3141)" fill="url(#linear-gradient)"/>
  </g>
</svg>
