<svg xmlns="http://www.w3.org/2000/svg" xmlns:xlink="http://www.w3.org/1999/xlink" width="80" height="80" viewBox="0 0 80 80">
  <defs>
    <linearGradient id="linear-gradient" x1="0.5" x2="0.5" y2="1" gradientUnits="objectBoundingBox">
      <stop offset="0" stop-color="#ff95a7"/>
      <stop offset="1" stop-color="#ff4060"/>
    </linearGradient>
  </defs>
  <g id="组_4517" data-name="组 4517" transform="translate(-198 -1001)">
    <circle id="椭圆_32" data-name="椭圆 32" cx="40" cy="40" r="40" transform="translate(198 1001)" opacity="0.2" fill="url(#linear-gradient)"/>
    <path id="减去_2" data-name="减去 2" d="M-15807.719-757.144a14.808,14.808,0,0,1-2.692-.247c-.484-.048-.958-.107-1.407-.176a10.961,10.961,0,0,1-2-.7,19.69,19.69,0,0,1-5.558-2.811,18.334,18.334,0,0,1-3.509-3.358,14.973,14.973,0,0,1-2.361-4,16.087,16.087,0,0,1-.62-6.834,12.3,12.3,0,0,1,2.119-5.243h-.092a15.238,15.238,0,0,0,1.43-3.112,10.174,10.174,0,0,0,.162-6.569.281.281,0,0,1,.025-.271.223.223,0,0,1,.181-.116.171.171,0,0,1,.076.019,9.578,9.578,0,0,1,5.53,3.225c.175-.128.332-.239.49-.35l.016-.011c.165-.115.334-.234.524-.375,6.433-4.477,4.642-11.846,4.217-13.277a.564.564,0,0,1,.1-.486.439.439,0,0,1,.35-.173.5.5,0,0,1,.115.014,20.607,20.607,0,0,1,9.773,3.807,16.372,16.372,0,0,1,4.871,6.036,19.28,19.28,0,0,1,1.85,8.044c3.235-1.242,3.085-3.738,2.952-5.94-.024-.409-.048-.794-.048-1.159a.418.418,0,0,1,.432-.411.452.452,0,0,1,.319.133,27.926,27.926,0,0,1,5.169,7.654,21.935,21.935,0,0,1,1.873,7.316,19.034,19.034,0,0,1-.569,6.331,14.37,14.37,0,0,1-2.16,4.7,24.426,24.426,0,0,1-5.856,5.4,19.738,19.738,0,0,1-5.485,2.253c-1.489.223-3,.383-4.474.475-1.108.07-2.227.106-3.324.106-.221,0-.444,0-.664,0A14.855,14.855,0,0,1-15807.719-757.144Zm2.813-24.818a8.645,8.645,0,0,0-8.705,8.563,8.643,8.643,0,0,0,8.705,8.56,8.643,8.643,0,0,0,8.705-8.56A8.645,8.645,0,0,0-15804.906-781.962Zm0,15.7a7.209,7.209,0,0,1-7.259-7.14,7.21,7.21,0,0,1,7.259-7.143,7.21,7.21,0,0,1,7.261,7.143A7.209,7.209,0,0,1-15804.906-766.259Zm-1.3-5.372a.006.006,0,0,1,0,0,.007.007,0,0,0,0,0s0,0,0,0l.006.005a.01.01,0,0,0,0,.008.019.019,0,0,0,0,.011l0,.006a.005.005,0,0,1,0,0l0,.008,0,0a.7.7,0,0,0,.141.17l0,0h0l0,0,0,0,0,0,0,0a.724.724,0,0,0,.441.17h.095a.777.777,0,0,0,.227-.058l3.622-1.5a.708.708,0,0,0,.389-.386.7.7,0,0,0,0-.545.721.721,0,0,0-.667-.434.73.73,0,0,0-.279.055l-2.634,1.091v-4.731a.717.717,0,0,0-.721-.712.718.718,0,0,0-.723.712v5.786a.673.673,0,0,0,.027.209.013.013,0,0,1,0,.008l0,.009v.005a0,0,0,0,1,0,0l0,.008a.01.01,0,0,0,0,.008.013.013,0,0,0,0,.008.013.013,0,0,0,0,0,.052.052,0,0,0,0,.006.042.042,0,0,0,.009.016v.005l0,0,0,.006s0,0,0,.005,0,.005,0,.005v0Z" transform="translate(16043 1821)" fill="url(#linear-gradient)"/>
  </g>
</svg>
