<svg xmlns="http://www.w3.org/2000/svg" xmlns:xlink="http://www.w3.org/1999/xlink" width="80" height="80" viewBox="0 0 80 80">
  <defs>
    <linearGradient id="linear-gradient" x1="0.5" x2="0.5" y2="1" gradientUnits="objectBoundingBox">
      <stop offset="0" stop-color="#ccb1fd"/>
      <stop offset="1" stop-color="#8e60ff"/>
    </linearGradient>
  </defs>
  <g id="组_4501" data-name="组 4501" transform="translate(-61 -494)">
    <circle id="椭圆_36" data-name="椭圆 36" cx="40" cy="40" r="40" transform="translate(61 494)" opacity="0.2" fill="url(#linear-gradient)"/>
    <path id="路径_8483" data-name="路径 8483" d="M314.835,81.611a.23.23,0,0,0,0,.268l5.868-1.245c.057.076.026.127-.07.115L310.98,79.7a.247.247,0,0,0-.236.134l-3.919,1.78c-.038.083-.1.083-.134,0l-3.919-1.78a.241.241,0,0,0-.236-.134l-9.653,1.051c-.089.013-.121-.045-.07-.115l5.6,1.245a.23.23,0,0,0,0-.268l-5.735-7.837c-.057-.076-.025-.127.07-.115L302.4,74.71a.246.246,0,0,0,.236-.134l3.919-8.889c.038-.083.1-.083.134,0l3.919,8.889a.241.241,0,0,0,.236.134l9.653-1.051c.089-.013.121.045.07.115Z" transform="translate(-206.004 437.169)" fill="#cdb4ff"/>
    <path id="减去_16" data-name="减去 16" d="M-15802.119-2573.236a23.729,23.729,0,0,1-16.888-6.995,23.731,23.731,0,0,1-6.994-16.888,23.731,23.731,0,0,1,6.994-16.887,23.729,23.729,0,0,1,16.888-6.995,23.726,23.726,0,0,1,16.888,6.995,23.727,23.727,0,0,1,7,16.887,23.727,23.727,0,0,1-7,16.888A23.726,23.726,0,0,1-15802.119-2573.236Zm-9.163-28.911a1.274,1.274,0,0,0-1.271,1.275v13.683a1.272,1.272,0,0,0,1.271,1.271h4.774v-.024a.1.1,0,0,1,.029.006.1.1,0,0,0,.03.006h12.086a3.516,3.516,0,0,0,3.606-3.062l1.8-9.56a3.66,3.66,0,0,0-3.785-3.606h-5.6l.544-1.263c1.038-2.248,1.1-4.244.175-5.771a3.784,3.784,0,0,0-3.308-1.755c-.081,0-.161,0-.239.007a1.036,1.036,0,0,0-.834.532l-4.838,8.261Z" transform="translate(15902.742 3133.006)" fill="url(#linear-gradient)"/>
    <path id="路径_8486" data-name="路径 8486" d="M381.364,552.526A1.369,1.369,0,0,1,380,551.163v-9.1a1.364,1.364,0,1,1,2.727,0v9.105A1.372,1.372,0,0,1,381.364,552.526Z" transform="translate(-287.787 -7.635)" fill="url(#linear-gradient)"/>
  </g>
</svg>
