<svg xmlns="http://www.w3.org/2000/svg" xmlns:xlink="http://www.w3.org/1999/xlink" width="80" height="80" viewBox="0 0 80 80">
  <defs>
    <linearGradient id="linear-gradient" x1="0.5" x2="0.5" y2="1" gradientUnits="objectBoundingBox">
      <stop offset="0" stop-color="#ffe2a7"/>
      <stop offset="1" stop-color="#ffba24"/>
    </linearGradient>
  </defs>
  <g id="组_4512" data-name="组 4512" transform="translate(-198 -832)">
    <circle id="椭圆_37" data-name="椭圆 37" cx="40" cy="40" r="40" transform="translate(198 832)" opacity="0.2" fill="url(#linear-gradient)"/>
    <g id="组_4493" data-name="组 4493" transform="translate(215.968 849.999)">
      <path id="减去_18" data-name="减去 18" d="M-16000.164-3427.195h-20.238a2.017,2.017,0,0,1-2.017-2.013v-3.631l18.668-18.665a4.178,4.178,0,0,0,1.144-3.792l-.664-5.331,4.15,3.269a2.014,2.014,0,0,1,.959,1.679v26.471a2,2,0,0,1-.588,1.429A1.987,1.987,0,0,1-16000.164-3427.195Zm-25.267-6.537a1.994,1.994,0,0,1-1.421-.589l-14.309-14.308a2,2,0,0,1-.589-1.421,2,2,0,0,1,.589-1.421l18.721-18.721a2,2,0,0,1,1.394-.588,2.326,2.326,0,0,1,.471.052l12.746,1.582a2.054,2.054,0,0,1,1.494,1.49l1.634,12.718a2.01,2.01,0,0,1-.587,1.9l-18.722,18.721A1.994,1.994,0,0,1-16025.431-3433.732Zm8.028-16.847a1.349,1.349,0,0,0-.906.348l-8.032,8.032a1.36,1.36,0,0,0-.4.966,1.359,1.359,0,0,0,.4.962,1.311,1.311,0,0,0,.944.4h.03a1.347,1.347,0,0,0,.954-.4l8.032-8.04a1.367,1.367,0,0,0-.057-1.872A1.369,1.369,0,0,0-16017.4-3450.579Zm3.276-12.954a2.18,2.18,0,0,0-2.178,2.178,2.18,2.18,0,0,0,2.178,2.178,2.181,2.181,0,0,0,2.179-2.178A2.181,2.181,0,0,0-16014.126-3463.533Z" transform="translate(16041.781 3470.781)" fill="url(#linear-gradient)"/>
    </g>
  </g>
</svg>
